<svg width="16" height="16" viewBox="0 0 16 16" fill="none" xmlns="http://www.w3.org/2000/svg">
<path d="M0 8C0 3.58172 3.58172 0 8 0C12.4183 0 16 3.58172 16 8C16 12.4183 12.4183 16 8 16C3.58172 16 0 12.4183 0 8Z" fill="#44D14A"/>
<path d="M10.3547 5.23844L7.0547 8.57069L5.7547 7.25799C5.66429 7.15298 5.55337 7.06797 5.4289 7.00829C5.30442 6.94861 5.16907 6.91556 5.03135 6.91119C4.89362 6.90683 4.75649 6.93126 4.62855 6.98294C4.50062 7.03463 4.38464 7.11245 4.2879 7.21154C4.19115 7.31062 4.11574 7.42882 4.06637 7.55873C4.01701 7.68863 3.99476 7.82744 4.00104 7.96644C4.00731 8.10543 4.04196 8.24162 4.10282 8.36646C4.16368 8.49129 4.24943 8.60208 4.3547 8.69186L6.3547 10.7114C6.54163 10.8964 6.79295 11.0001 7.0547 11.0001C7.31645 11.0001 7.56777 10.8964 7.7547 10.7114L11.7547 6.67232C11.92 6.48034 12.0074 6.23244 11.9995 5.97818C11.9916 5.72393 11.889 5.48205 11.7121 5.3009C11.5352 5.11975 11.2972 5.01269 11.0455 5.00111C10.7939 4.98953 10.5471 5.07429 10.3547 5.23844Z" fill="white"/>
</svg>
