<svg width="12" height="9" viewBox="0 0 12 9" fill="none" xmlns="http://www.w3.org/2000/svg">
<path d="M9.07983 5.35077L0.857397 5.35077C0.630001 5.35077 0.411919 5.25595 0.251126 5.08717C0.0903328 4.91839 0 4.68947 0 4.45077C0 4.21208 0.0903328 3.98316 0.251126 3.81438C0.411919 3.64559 0.630001 3.55077 0.857397 3.55077L9.07983 3.55077L7.10782 1.48077C6.96844 1.30757 6.89647 1.08553 6.9063 0.859033C6.91613 0.63254 7.00704 0.418286 7.16085 0.259107C7.31466 0.0999269 7.52004 0.00754929 7.73593 0.000442505C7.95182 -0.00666523 8.16231 0.0720224 8.32532 0.220772L11.7549 3.82077C11.912 3.98901 12 4.21519 12 4.45077C12 4.68635 11.912 4.91254 11.7549 5.08077L8.32532 8.68077C8.24908 8.77551 8.15501 8.85269 8.04902 8.90746C7.94302 8.96223 7.82738 8.99342 7.70936 8.99907C7.59134 9.00471 7.47348 8.98469 7.36318 8.94027C7.25287 8.89584 7.15251 8.82796 7.06838 8.74089C6.98424 8.65383 6.91816 8.54945 6.87428 8.4343C6.8304 8.31916 6.80965 8.19574 6.81336 8.07179C6.81706 7.94783 6.84513 7.82602 6.8958 7.71399C6.94647 7.60196 7.01865 7.50214 7.10782 7.42077L9.0884 5.35077H9.07983Z" fill="#0066FF"/>
</svg>
