<svg width="20" height="20" viewBox="0 0 20 20" fill="none" xmlns="http://www.w3.org/2000/svg">
<path d="M13.8141 7.99628L13.8145 7.99668C13.8458 8.02767 13.8706 8.06453 13.8875 8.10515C13.9044 8.14578 13.9131 8.18935 13.9131 8.23335C13.9131 8.27735 13.9044 8.32091 13.8875 8.36154C13.8706 8.40212 13.8458 8.43895 13.8146 8.46991C13.8146 8.46995 13.8146 8.46998 13.8145 8.47001L10.2402 12.0027L10.2402 12.0027L10.2366 12.0062C10.2057 12.0375 10.1688 12.0623 10.1282 12.0792C10.0876 12.0961 10.044 12.1048 9.99998 12.1048C9.95597 12.1048 9.91241 12.0961 9.87179 12.0792C9.83117 12.0623 9.7943 12.0375 9.76331 12.0062L9.76331 12.0062L9.76186 12.0048L6.22853 8.47146L6.22853 8.47146L6.22708 8.47001C6.19584 8.43903 6.17104 8.40216 6.15411 8.36154C6.13719 8.32092 6.12848 8.27735 6.12848 8.23335C6.12848 8.18934 6.13719 8.14577 6.15411 8.10515C6.17104 8.06454 6.19584 8.02767 6.22708 7.99668L6.22748 7.99628C6.28993 7.9342 6.37442 7.89935 6.46248 7.89935C6.55034 7.89935 6.63465 7.93404 6.69706 7.99587C6.6972 7.99601 6.69734 7.99615 6.69748 7.99628L9.64642 10.9452L9.99751 11.2963L10.351 10.9477L13.3427 7.9977L13.3427 7.99771L13.3441 7.99628C13.4066 7.9342 13.4911 7.89935 13.5791 7.89935C13.6672 7.89935 13.7517 7.9342 13.8141 7.99628Z" fill="#252626" stroke="#252626"/>
</svg>
