<svg width="11" height="11" viewBox="0 0 11 11" fill="none" xmlns="http://www.w3.org/2000/svg">
<path d="M0.218756 1.275C-0.0729186 0.98333 -0.0729189 0.510431 0.218756 0.218756C0.510431 -0.0729188 0.98333 -0.0729187 1.275 0.218756L10.7812 9.72499C11.0729 10.0167 11.0729 10.4896 10.7812 10.7812C10.4896 11.0729 10.0167 11.0729 9.72499 10.7812L0.218756 1.275Z" fill="black"/>
<path d="M10.7812 1.275C11.0729 0.98333 11.0729 0.510431 10.7812 0.218756C10.4896 -0.0729188 10.0167 -0.0729187 9.72499 0.218756L0.218757 9.72499C-0.0729177 10.0167 -0.0729179 10.4896 0.218757 10.7812C0.510432 11.0729 0.983331 11.0729 1.27501 10.7812L10.7812 1.275Z" fill="black"/>
</svg>
