<svg height="48" viewBox="0 0 307 48" width="307" xmlns="http://www.w3.org/2000/svg" xmlns:xlink="http://www.w3.org/1999/xlink"><defs><rect id="a" height="145" rx="2" width="326"/><mask id="b" fill="#fff"><use fill="#fff" fill-rule="evenodd" xlink:href="#a"/></mask></defs><g fill="none" fill-rule="evenodd" transform="translate(-19 -97)"><use xlink:href="#a"/><path d="m261.355106 152.514211c-3.620379 5.133066-9.596207 8.485789-16.355106 8.485789-5.13992 0-9.826983-1.938914-13.369678-5.125232-2.074914.728848-4.306328 1.125232-6.630322 1.125232-4.963089 0-9.503945-1.807798-13-4.800829-3.496055 2.993031-8.036911 4.800829-13 4.800829-4.729734 0-9.076005-1.641796-12.5-4.386573-3.423995 2.744777-7.770266 4.386573-12.5 4.386573-5.203199 0-9.942321-1.986948-13.5-5.243479-3.557679 3.256531-8.296801 5.243479-13.5 5.243479-7.08641 0-13.312021-3.685516-16.864625-9.244339-1.021501.160832-2.068686.244339-3.135375.244339-2.315743 0-4.539562-.393574-6.608215-1.117481-3.441063 6.042741-9.940571 10.117481-17.391785 10.117481-4.4276761 0-8.5193048-1.43879-11.8328506-3.874335-2.4177627 1.80541-5.4176257 2.874335-8.6671494 2.874335-3.5524189 0-6.8064649-1.277486-9.327802-3.398122-1.3406472.883772-2.9463562 1.398122-4.672198 1.398122-3.4894456 0-6.4877879-2.102663-7.7971259-5.110089-1.2395286.706479-2.6740673 1.110089-4.2028741 1.110089-1.8794022 0-3.6163422-.609953-5.0236611-1.6427-1.5360178 2.201999-4.0879315 3.6427-6.9763389 3.6427-2.6144189 0-4.9531545-1.18034-6.5123849-3.037199-.2403376 4.479206-3.9484695 8.037199-8.4876151 8.037199-4.6944204 0-8.5-3.80558-8.5-8.5s3.8055796-8.5 8.5-8.5c2.6144189 0 4.9531545 1.18034 6.5123849 3.037199.2160412-4.026389 3.2341762-7.308407 7.1391879-7.930837-.099492-.520177-.1515728-1.057187-.1515728-1.606362 0-4.69442 3.8055796-8.5 8.5-8.5 2.1101013 0 4.0406189.768889 5.5266655 2.041778-.0177046-.345021-.0266655-.692353-.0266655-1.041778 0-11.045695 8.954305-20 20-20 8.3721556 0 15.5428119 5.14423 18.5235509 12.444272 2.3096871-.931497 4.8331861-1.444272 7.4764491-1.444272 2.315743 0 4.539562.393574 6.608215 1.117481 3.441063-6.042741 9.940571-10.117481 17.391785-10.117481 7.08641 0 13.312021 3.685516 16.864625 9.244339 1.021501-.160832 2.068686-.244339 3.135375-.244339 5.203199 0 9.942321 1.986948 13.5 5.243479 3.557679-3.256531 8.296801-5.243479 13.5-5.243479 4.729734 0 9.076005 1.641796 12.5 4.386573 3.423995-2.744777 7.770266-4.386573 12.5-4.386573 4.963089 0 9.503945 1.807798 13 4.800829 3.496055-2.993031 8.036911-4.800829 13-4.800829 1.54949 0 3.057825.176207 4.50606.509676 2.03792-8.88356 9.992124-15.509676 19.49394-15.509676.08529 0 .170456.000534.255494.001598.617303-1.748623 2.28458-3.001598 4.244506-3.001598 2.485281 0 4.5 2.014719 4.5 4.5 0 .20817-.014135.413038-.041498.613697 1.69516.850694 3.252658 1.935281 4.630152 3.211421 1.264597-.837438 2.781019-1.325118 4.411346-1.325118.859565 0 1.687467.135564 2.463493.386477 1.448703-2.0488 3.83639-3.386477 6.536507-3.386477 3.800307 0 6.981705 2.649861 7.797306 6.202694 3.552833.815601 6.202694 3.996999 6.202694 7.797306 0 3.436944-2.167359 6.367675-5.209884 7.5 2.97072 1.105601 5.107094 3.925723 5.206279 7.25752 1.370152-1.099649 3.110051-1.75752 5.003605-1.75752 4.018887 0 7.345624 2.963449 7.914226 6.824362 1.38244-1.139779 3.15416-1.824362 5.085774-1.824362.338741 0 .672565.021053 1.000235.061923-.000157-.020623-.000235-.041264-.000235-.061923 0-4.418278 3.581722-8 8-8 2.419425 0 4.588001 1.074015 6.054966 2.771283.869987-.491067 1.874786-.771283 2.945034-.771283 3.313708 0 6 2.686292 6 6 0 2.208222-1.192916 4.137824-2.969472 5.179527.618212 1.135244.969472 2.436838.969472 3.820473 0 4.418278-3.581722 8-8 8-3.228481 0-6.010294-1.912416-7.274401-4.666211-.225707.349553-.477923.680383-.753804.989647.018678.223045.028205.448692.028205.676564 0 4.418278-3.581722 8-8 8-2.995434 0-5.606358-1.646286-6.977332-4.08342-1.181801.688818-2.556153 1.08342-4.022668 1.08342-3.567153 0-6.58901-2.33469-7.620881-5.559381-1.924079 2.182561-4.740812 3.559381-7.879119 3.559381-2.431853 0-4.670614-.826725-6.450563-2.214456-1.35015 2.508974-4.000625 4.214456-7.049437 4.214456-1.731967 0-3.335385-.550383-4.644894-1.485789z" fill="#fff" mask="url(#b)" stroke="#99cddd" stroke-linejoin="round" stroke-width="2"/></g></svg>