<svg width="50" height="39" xmlns="http://www.w3.org/2000/svg"><g fill="#579DD2" fill-rule="evenodd"><path d="M23.827 27.445H2.35V7.786l17.599 8.272c.31.135.663.135.973 0L38.52 7.786v4.988a1.13 1.13 0 002.26 0V1.49A1.13 1.13 0 0039.65.362H1.221C.596.362.091.865.091 1.49v27.083a1.128 1.128 0 001.13 1.128h22.607a1.128 1.128 0 100-2.256h-.001zM38.52 2.617v2.664L20.436 13.78 2.35 5.28V2.617h36.17z"/><path d="M39.65 18.417c-2.698 0-5.286 1.07-7.193 2.975a10.149 10.149 0 00-2.98 7.181 10.15 10.15 0 002.98 7.181 10.182 10.182 0 0014.385 0 10.14 10.14 0 000-14.362 10.182 10.182 0 00-7.192-2.975zm0 18.054a7.922 7.922 0 01-5.595-2.312 7.894 7.894 0 010-11.171 7.923 7.923 0 0111.19 0 7.897 7.897 0 012.318 5.585 7.895 7.895 0 01-2.319 5.586 7.92 7.92 0 01-5.594 2.313z"/><path d="M42.239 25.515l-3.72 3.724-1.457-1.466v-.002a1.134 1.134 0 10-1.604 1.604l2.26 2.257-.001-.002a1.133 1.133 0 001.606 0l4.52-4.513a1.131 1.131 0 000-1.602 1.136 1.136 0 00-1.604 0z"/></g></svg>
