<svg width="16" height="16" viewBox="0 0 16 16" fill="none" xmlns="http://www.w3.org/2000/svg">
<g clip-path="url(#clip0)">
<path d="M7.11264 0.70772C7.48602 -0.0108352 8.51398 -0.0108361 8.88736 0.707719L15.035 12.5389C15.3809 13.2046 14.8979 14 14.1477 14H1.85233C1.10213 14 0.619068 13.2046 0.964973 12.5389L7.11264 0.70772Z" fill="#7D7D7D"/>
<path d="M7.99999 12C7.73477 12 7.48042 11.8947 7.29288 11.7071C7.10534 11.5196 6.99999 11.2652 6.99999 11C6.99999 10.7348 7.10534 10.4804 7.29288 10.2929C7.48042 10.1054 7.73477 10 7.99999 10C8.2652 10 8.51956 10.1054 8.70709 10.2929C8.89463 10.4804 8.99999 10.7348 8.99999 11C8.99999 11.2652 8.89463 11.5196 8.70709 11.7071C8.51956 11.8947 8.2652 12 7.99999 12ZM8.66665 8.06668C8.57999 8.86668 7.41332 8.86668 7.33332 8.06668L6.99999 4.73334C6.99064 4.64036 7.00095 4.54645 7.03024 4.4577C7.05953 4.36896 7.10715 4.28737 7.17002 4.21822C7.23288 4.14907 7.30958 4.09391 7.39514 4.05632C7.4807 4.01872 7.5732 3.99954 7.66665 4.00001H8.33332C8.42677 3.99954 8.51928 4.01872 8.60483 4.05632C8.69039 4.09391 8.76709 4.14907 8.82996 4.21822C8.89282 4.28737 8.94044 4.36896 8.96973 4.4577C8.99903 4.54645 9.00933 4.64036 8.99999 4.73334L8.66665 8.06668Z" fill="white"/>
</g>
<defs>
<clipPath id="clip0">
<rect width="16" height="16" fill="white"/>
</clipPath>
</defs>
</svg>
