<svg width="356" height="235" viewBox="0 0 356 235" fill="none" xmlns="http://www.w3.org/2000/svg">
<g clip-path="url(#clip0_3_28)">
<rect width="356" height="235" rx="10" fill="white"/>
<rect x="-256" width="612" height="42" fill="url(#paint0_linear_3_28)"/>
<rect x="-298" y="46" width="606" height="28" rx="14" fill="#F1F3F4"/>
<rect x="-298" y="77" width="606" height="1" rx="0.5" fill="#DBDCDD"/>
<rect x="315.5" y="45.5" width="29" height="29" rx="14.5" fill="#F1F3F4"/>
<path d="M336.333 59.6667H335.333V57C335.333 56.2667 334.733 55.6667 334 55.6667H331.333V54.6667C331.333 53.7467 330.587 53 329.667 53C328.747 53 328 53.7467 328 54.6667V55.6667H325.333C324.6 55.6667 324.007 56.2667 324.007 57V59.5333H325C325.993 59.5333 326.8 60.34 326.8 61.3333C326.8 62.3267 325.993 63.1333 325 63.1333H324V65.6667C324 66.4 324.6 67 325.333 67H327.867V66C327.867 65.0067 328.673 64.2 329.667 64.2C330.66 64.2 331.467 65.0067 331.467 66V67H334C334.733 67 335.333 66.4 335.333 65.6667V63H336.333C337.253 63 338 62.2533 338 61.3333C338 60.4133 337.253 59.6667 336.333 59.6667Z" fill="#606367"/>
<rect x="315.5" y="45.5" width="29" height="29" rx="14.5" stroke="#FF0000"/>
<g filter="url(#filter0_d_3_28)">
<rect x="27" y="72" width="321" height="179" rx="4" fill="white"/>
<path d="M44.28 95.544H50.904V96.84H45.624V100.632H50.392V101.912H45.624V105.704H50.904V107H44.28V95.544ZM54.7443 102.856L51.9123 98.84H53.4483L55.5603 101.864L57.5923 98.84H59.1763L56.3283 102.856L59.2403 107H57.6563L55.5283 103.864L53.4483 107H51.8643L54.7443 102.856ZM63.5971 107.128C63.2665 107.128 62.9571 107.075 62.6691 106.968C62.3918 106.861 62.1571 106.717 61.9651 106.536C61.7518 106.333 61.5918 106.099 61.4851 105.832C61.3785 105.565 61.3251 105.24 61.3251 104.856V100.072H59.9011V98.84H61.3251V96.536H62.6851V98.84H64.6691V100.072H62.6851V104.52C62.6851 104.968 62.7705 105.299 62.9411 105.512C63.1438 105.747 63.4371 105.864 63.8211 105.864C64.1305 105.864 64.4291 105.773 64.7171 105.592V106.92C64.5571 106.995 64.3918 107.048 64.2211 107.08C64.0611 107.112 63.8531 107.128 63.5971 107.128ZM69.5931 107.256C68.8145 107.256 68.1158 107.069 67.4971 106.696C66.8785 106.323 66.3931 105.811 66.0411 105.16C65.6998 104.499 65.5291 103.757 65.5291 102.936C65.5291 102.147 65.6891 101.421 66.0091 100.76C66.3398 100.099 66.8038 99.5707 67.4011 99.176C67.9985 98.7813 68.6918 98.584 69.4811 98.584C70.2811 98.584 70.9745 98.7653 71.5611 99.128C72.1478 99.48 72.5958 99.9707 72.9051 100.6C73.2251 101.229 73.3851 101.949 73.3851 102.76C73.3851 102.92 73.3691 103.059 73.3371 103.176H66.8891C66.9211 103.795 67.0705 104.317 67.3371 104.744C67.6038 105.171 67.9398 105.491 68.3451 105.704C68.7611 105.917 69.1931 106.024 69.6411 106.024C70.6865 106.024 71.4918 105.533 72.0571 104.552L73.2091 105.112C72.8571 105.773 72.3771 106.296 71.7691 106.68C71.1718 107.064 70.4465 107.256 69.5931 107.256ZM71.9451 102.056C71.9238 101.715 71.8278 101.373 71.6571 101.032C71.4865 100.691 71.2145 100.403 70.8411 100.168C70.4785 99.9333 70.0198 99.816 69.4651 99.816C68.8251 99.816 68.2811 100.024 67.8331 100.44C67.3958 100.845 67.1078 101.384 66.9691 102.056H71.9451ZM74.9768 98.84H76.2728V100.04H76.3368C76.5608 99.6347 76.9181 99.2933 77.4088 99.016C77.8994 98.728 78.4221 98.584 78.9768 98.584C79.9581 98.584 80.7048 98.872 81.2168 99.448C81.7394 100.013 82.0008 100.787 82.0008 101.768V107H80.6408V101.976C80.6408 101.219 80.4594 100.669 80.0968 100.328C79.7341 99.9867 79.2381 99.816 78.6088 99.816C78.1714 99.816 77.7768 99.9387 77.4248 100.184C77.0834 100.429 76.8168 100.755 76.6248 101.16C76.4328 101.555 76.3368 101.971 76.3368 102.408V107H74.9768V98.84ZM86.7154 107.256C85.8407 107.256 85.11 107.053 84.5234 106.648C83.9367 106.232 83.5207 105.704 83.2754 105.064L84.4914 104.52C84.694 105.011 84.9927 105.389 85.3874 105.656C85.7927 105.923 86.2354 106.056 86.7154 106.056C87.2274 106.056 87.6647 105.955 88.0274 105.752C88.39 105.539 88.5714 105.24 88.5714 104.856C88.5714 104.515 88.4274 104.243 88.1394 104.04C87.8514 103.827 87.398 103.645 86.7794 103.496L85.7874 103.24C85.1367 103.08 84.6034 102.808 84.1874 102.424C83.7714 102.04 83.5634 101.544 83.5634 100.936C83.5634 100.467 83.702 100.056 83.9794 99.704C84.2674 99.3413 84.646 99.064 85.1154 98.872C85.5847 98.68 86.0914 98.584 86.6354 98.584C87.35 98.584 87.9847 98.7387 88.5394 99.048C89.1047 99.3573 89.5047 99.7893 89.7394 100.344L88.5554 100.888C88.1927 100.163 87.5474 99.8 86.6194 99.8C86.1714 99.8 85.7767 99.9067 85.4354 100.12C85.1047 100.323 84.9394 100.584 84.9394 100.904C84.9394 101.203 85.0567 101.448 85.2914 101.64C85.526 101.821 85.878 101.971 86.3474 102.088L87.5314 102.392C88.3314 102.595 88.934 102.899 89.3394 103.304C89.7447 103.699 89.9474 104.184 89.9474 104.76C89.9474 105.261 89.8034 105.704 89.5154 106.088C89.2274 106.461 88.838 106.749 88.3474 106.952C87.8567 107.155 87.3127 107.256 86.7154 107.256ZM92.1518 97.336C91.8851 97.336 91.6558 97.24 91.4638 97.048C91.2718 96.856 91.1758 96.6267 91.1758 96.36C91.1758 96.0933 91.2718 95.8693 91.4638 95.688C91.6558 95.496 91.8851 95.4 92.1518 95.4C92.4184 95.4 92.6478 95.496 92.8398 95.688C93.0318 95.8693 93.1278 96.0933 93.1278 96.36C93.1278 96.6267 93.0318 96.856 92.8398 97.048C92.6584 97.24 92.4291 97.336 92.1518 97.336ZM91.4798 98.84H92.8238V107H91.4798V98.84ZM98.643 107.256C97.843 107.256 97.123 107.064 96.483 106.68C95.843 106.296 95.3417 105.773 94.979 105.112C94.627 104.451 94.451 103.72 94.451 102.92C94.451 102.12 94.627 101.389 94.979 100.728C95.3417 100.067 95.843 99.544 96.483 99.16C97.123 98.776 97.843 98.584 98.643 98.584C99.443 98.584 100.163 98.776 100.803 99.16C101.443 99.544 101.939 100.067 102.291 100.728C102.654 101.389 102.835 102.12 102.835 102.92C102.835 103.72 102.654 104.451 102.291 105.112C101.939 105.773 101.443 106.296 100.803 106.68C100.163 107.064 99.443 107.256 98.643 107.256ZM98.643 106.024C99.1443 106.024 99.6083 105.901 100.035 105.656C100.472 105.4 100.819 105.037 101.075 104.568C101.342 104.099 101.475 103.549 101.475 102.92C101.475 102.291 101.342 101.741 101.075 101.272C100.819 100.803 100.472 100.445 100.035 100.2C99.6083 99.944 99.1443 99.816 98.643 99.816C98.1417 99.816 97.6723 99.944 97.235 100.2C96.7977 100.445 96.4457 100.803 96.179 101.272C95.923 101.741 95.795 102.291 95.795 102.92C95.795 103.549 95.923 104.099 96.179 104.568C96.4457 105.037 96.7977 105.4 97.235 105.656C97.6723 105.901 98.1417 106.024 98.643 106.024ZM104.258 98.84H105.554V100.04H105.618C105.842 99.6347 106.199 99.2933 106.69 99.016C107.181 98.728 107.703 98.584 108.258 98.584C109.239 98.584 109.986 98.872 110.498 99.448C111.021 100.013 111.282 100.787 111.282 101.768V107H109.922V101.976C109.922 101.219 109.741 100.669 109.378 100.328C109.015 99.9867 108.519 99.816 107.89 99.816C107.453 99.816 107.058 99.9387 106.706 100.184C106.365 100.429 106.098 100.755 105.906 101.16C105.714 101.555 105.618 101.971 105.618 102.408V107H104.258V98.84ZM115.997 107.256C115.122 107.256 114.391 107.053 113.805 106.648C113.218 106.232 112.802 105.704 112.557 105.064L113.773 104.52C113.975 105.011 114.274 105.389 114.669 105.656C115.074 105.923 115.517 106.056 115.997 106.056C116.509 106.056 116.946 105.955 117.309 105.752C117.671 105.539 117.853 105.24 117.853 104.856C117.853 104.515 117.709 104.243 117.421 104.04C117.133 103.827 116.679 103.645 116.061 103.496L115.069 103.24C114.418 103.08 113.885 102.808 113.469 102.424C113.053 102.04 112.845 101.544 112.845 100.936C112.845 100.467 112.983 100.056 113.261 99.704C113.549 99.3413 113.927 99.064 114.397 98.872C114.866 98.68 115.373 98.584 115.917 98.584C116.631 98.584 117.266 98.7387 117.821 99.048C118.386 99.3573 118.786 99.7893 119.021 100.344L117.837 100.888C117.474 100.163 116.829 99.8 115.901 99.8C115.453 99.8 115.058 99.9067 114.717 100.12C114.386 100.323 114.221 100.584 114.221 100.904C114.221 101.203 114.338 101.448 114.573 101.64C114.807 101.821 115.159 101.971 115.629 102.088L116.813 102.392C117.613 102.595 118.215 102.899 118.621 103.304C119.026 103.699 119.229 104.184 119.229 104.76C119.229 105.261 119.085 105.704 118.797 106.088C118.509 106.461 118.119 106.749 117.629 106.952C117.138 107.155 116.594 107.256 115.997 107.256Z" fill="#202124"/>
<path d="M43.984 126.408H49.204V127.692H45.328V130.164H48.82V131.436H45.328V135H43.984V126.408ZM52.4102 135.192C51.6662 135.192 51.0982 134.972 50.7062 134.532C50.3222 134.084 50.1302 133.464 50.1302 132.672V128.88H51.4502V132.492C51.4502 132.988 51.5662 133.36 51.7982 133.608C52.0382 133.856 52.3502 133.98 52.7342 133.98C53.0462 133.98 53.3222 133.9 53.5622 133.74C53.8022 133.572 53.9862 133.352 54.1142 133.08C54.2422 132.808 54.3062 132.516 54.3062 132.204V128.88H55.6262V135H54.3782V134.208H54.3062C54.1382 134.496 53.8782 134.732 53.5262 134.916C53.1742 135.1 52.8022 135.192 52.4102 135.192ZM57.1625 126.408H58.4825V135H57.1625V126.408ZM60.0336 126.408H61.3536V135H60.0336V126.408ZM67.6372 135.192C67.1972 135.192 66.8052 135.108 66.4612 134.94C66.1172 134.764 65.8492 134.52 65.6572 134.208C65.4652 133.888 65.3692 133.528 65.3692 133.128C65.3692 132.496 65.6052 131.996 66.0772 131.628C66.5572 131.26 67.1612 131.076 67.8892 131.076C68.2492 131.076 68.5732 131.112 68.8612 131.184C69.1492 131.248 69.3772 131.32 69.5452 131.4V131.088C69.5452 130.712 69.4052 130.408 69.1252 130.176C68.8452 129.936 68.4852 129.816 68.0452 129.816C67.7332 129.816 67.4372 129.884 67.1572 130.02C66.8852 130.156 66.6652 130.344 66.4972 130.584L65.5732 129.876C65.8452 129.5 66.1972 129.208 66.6292 129C67.0612 128.792 67.5412 128.688 68.0692 128.688C68.9572 128.688 69.6412 128.908 70.1212 129.348C70.6012 129.78 70.8412 130.392 70.8412 131.184V135H69.5452V134.268H69.4852C69.3092 134.532 69.0612 134.752 68.7412 134.928C68.4212 135.104 68.0532 135.192 67.6372 135.192ZM67.8652 134.1C68.1852 134.1 68.4732 134.024 68.7292 133.872C68.9852 133.72 69.1852 133.516 69.3292 133.26C69.4732 133.004 69.5452 132.728 69.5452 132.432C69.3612 132.328 69.1452 132.244 68.8972 132.18C68.6572 132.116 68.4052 132.084 68.1412 132.084C67.6452 132.084 67.2812 132.184 67.0492 132.384C66.8172 132.576 66.7012 132.828 66.7012 133.14C66.7012 133.42 66.8092 133.652 67.0252 133.836C67.2412 134.012 67.5212 134.1 67.8652 134.1ZM75.0531 135.192C74.4451 135.192 73.8971 135.052 73.4091 134.772C72.9291 134.492 72.5531 134.108 72.2811 133.62C72.0171 133.124 71.8851 132.564 71.8851 131.94C71.8851 131.316 72.0171 130.76 72.2811 130.272C72.5531 129.776 72.9291 129.388 73.4091 129.108C73.8971 128.828 74.4451 128.688 75.0531 128.688C75.7251 128.688 76.2971 128.84 76.7691 129.144C77.2411 129.448 77.5771 129.86 77.7771 130.38L76.5651 130.884C76.2931 130.236 75.7771 129.912 75.0171 129.912C74.6891 129.912 74.3851 129.996 74.1051 130.164C73.8331 130.332 73.6131 130.572 73.4451 130.884C73.2851 131.188 73.2051 131.54 73.2051 131.94C73.2051 132.34 73.2851 132.696 73.4451 133.008C73.6131 133.32 73.8331 133.56 74.1051 133.728C74.3851 133.896 74.6891 133.98 75.0171 133.98C75.4011 133.98 75.7291 133.896 76.0011 133.728C76.2811 133.552 76.4931 133.304 76.6371 132.984L77.8251 133.5C77.5931 134.02 77.2411 134.432 76.7691 134.736C76.2971 135.04 75.7251 135.192 75.0531 135.192ZM81.7211 135.192C81.1131 135.192 80.5651 135.052 80.0771 134.772C79.5971 134.492 79.2211 134.108 78.9491 133.62C78.6851 133.124 78.5531 132.564 78.5531 131.94C78.5531 131.316 78.6851 130.76 78.9491 130.272C79.2211 129.776 79.5971 129.388 80.0771 129.108C80.5651 128.828 81.1131 128.688 81.7211 128.688C82.3931 128.688 82.9651 128.84 83.4371 129.144C83.9091 129.448 84.2451 129.86 84.4451 130.38L83.2331 130.884C82.9611 130.236 82.4451 129.912 81.6851 129.912C81.3571 129.912 81.0531 129.996 80.7731 130.164C80.5011 130.332 80.2811 130.572 80.1131 130.884C79.9531 131.188 79.8731 131.54 79.8731 131.94C79.8731 132.34 79.9531 132.696 80.1131 133.008C80.2811 133.32 80.5011 133.56 80.7731 133.728C81.0531 133.896 81.3571 133.98 81.6851 133.98C82.0691 133.98 82.3971 133.896 82.6691 133.728C82.9491 133.552 83.1611 133.304 83.3051 132.984L84.4931 133.5C84.2611 134.02 83.9091 134.432 83.4371 134.736C82.9651 135.04 82.3931 135.192 81.7211 135.192ZM88.3531 135.192C87.7531 135.192 87.2131 135.052 86.7331 134.772C86.2611 134.492 85.8891 134.108 85.6171 133.62C85.3531 133.124 85.2211 132.568 85.2211 131.952C85.2211 131.368 85.3491 130.828 85.6051 130.332C85.8691 129.828 86.2331 129.428 86.6971 129.132C87.1611 128.836 87.6891 128.688 88.2811 128.688C88.8971 128.688 89.4291 128.824 89.8771 129.096C90.3331 129.368 90.6771 129.74 90.9091 130.212C91.1491 130.684 91.2691 131.216 91.2691 131.808C91.2691 131.92 91.2571 132.06 91.2331 132.228H86.5411C86.5891 132.796 86.7891 133.236 87.1411 133.548C87.5011 133.852 87.9171 134.004 88.3891 134.004C88.7651 134.004 89.0891 133.92 89.3611 133.752C89.6411 133.576 89.8651 133.34 90.0331 133.044L91.1491 133.572C90.8611 134.076 90.4851 134.472 90.0211 134.76C89.5571 135.048 89.0011 135.192 88.3531 135.192ZM89.9251 131.22C89.9091 131.004 89.8411 130.792 89.7211 130.584C89.6011 130.368 89.4171 130.188 89.1691 130.044C88.9291 129.9 88.6331 129.828 88.2811 129.828C87.8571 129.828 87.4971 129.956 87.2011 130.212C86.9131 130.46 86.7131 130.796 86.6011 131.22H89.9251ZM94.7617 135.192C94.0577 135.192 93.4817 135.04 93.0337 134.736C92.5857 134.424 92.2697 134.028 92.0857 133.548L93.2617 133.032C93.4057 133.352 93.6057 133.596 93.8617 133.764C94.1257 133.932 94.4257 134.016 94.7617 134.016C95.0897 134.016 95.3657 133.96 95.5897 133.848C95.8137 133.728 95.9257 133.552 95.9257 133.32C95.9257 133.096 95.8297 132.92 95.6377 132.792C95.4457 132.664 95.1497 132.552 94.7497 132.456L94.0177 132.276C93.5297 132.156 93.1257 131.944 92.8057 131.64C92.4857 131.336 92.3257 130.952 92.3257 130.488C92.3257 130.128 92.4297 129.812 92.6377 129.54C92.8537 129.268 93.1417 129.06 93.5017 128.916C93.8617 128.764 94.2537 128.688 94.6777 128.688C95.2457 128.688 95.7457 128.804 96.1777 129.036C96.6097 129.26 96.9217 129.588 97.1137 130.02L95.9617 130.524C95.7297 130.052 95.3057 129.816 94.6897 129.816C94.3937 129.816 94.1457 129.876 93.9457 129.996C93.7457 130.116 93.6457 130.272 93.6457 130.464C93.6457 130.648 93.7217 130.8 93.8737 130.92C94.0257 131.032 94.2497 131.128 94.5457 131.208L95.4457 131.436C96.0457 131.588 96.4977 131.82 96.8017 132.132C97.1137 132.436 97.2697 132.812 97.2697 133.26C97.2697 133.644 97.1577 133.984 96.9337 134.28C96.7177 134.568 96.4177 134.792 96.0337 134.952C95.6497 135.112 95.2257 135.192 94.7617 135.192ZM100.645 135.192C99.9405 135.192 99.3645 135.04 98.9165 134.736C98.4685 134.424 98.1525 134.028 97.9685 133.548L99.1445 133.032C99.2885 133.352 99.4885 133.596 99.7445 133.764C100.009 133.932 100.309 134.016 100.645 134.016C100.973 134.016 101.249 133.96 101.473 133.848C101.697 133.728 101.809 133.552 101.809 133.32C101.809 133.096 101.713 132.92 101.521 132.792C101.329 132.664 101.033 132.552 100.633 132.456L99.9005 132.276C99.4125 132.156 99.0085 131.944 98.6885 131.64C98.3685 131.336 98.2085 130.952 98.2085 130.488C98.2085 130.128 98.3125 129.812 98.5205 129.54C98.7365 129.268 99.0245 129.06 99.3845 128.916C99.7445 128.764 100.137 128.688 100.561 128.688C101.129 128.688 101.629 128.804 102.061 129.036C102.493 129.26 102.805 129.588 102.997 130.02L101.845 130.524C101.613 130.052 101.189 129.816 100.573 129.816C100.277 129.816 100.029 129.876 99.8285 129.996C99.6285 130.116 99.5285 130.272 99.5285 130.464C99.5285 130.648 99.6045 130.8 99.7565 130.92C99.9085 131.032 100.133 131.128 100.429 131.208L101.329 131.436C101.929 131.588 102.381 131.82 102.685 132.132C102.997 132.436 103.153 132.812 103.153 133.26C103.153 133.644 103.041 133.984 102.817 134.28C102.601 134.568 102.301 134.792 101.917 134.952C101.533 135.112 101.109 135.192 100.645 135.192Z" fill="black"/>
<path d="M45.724 146.38H43.312V145.408H49.144V146.38H46.744V154H45.724V146.38ZM50.2248 145.408H51.2448V147.94L51.1968 148.78H51.2448C51.4128 148.468 51.6768 148.208 52.0368 148C52.4048 147.792 52.8048 147.688 53.2368 147.688C53.9808 147.688 54.5488 147.908 54.9408 148.348C55.3328 148.78 55.5287 149.356 55.5287 150.076V154H54.5088V150.232C54.5088 149.68 54.3688 149.272 54.0888 149.008C53.8088 148.744 53.4448 148.612 52.9967 148.612C52.6768 148.612 52.3808 148.708 52.1088 148.9C51.8448 149.092 51.6328 149.34 51.4728 149.644C51.3208 149.948 51.2448 150.264 51.2448 150.592V154H50.2248V145.408ZM59.7222 154.192C59.1382 154.192 58.6142 154.052 58.1502 153.772C57.6862 153.492 57.3222 153.108 57.0582 152.62C56.8022 152.124 56.6742 151.568 56.6742 150.952C56.6742 150.36 56.7942 149.816 57.0342 149.32C57.2822 148.824 57.6302 148.428 58.0782 148.132C58.5262 147.836 59.0462 147.688 59.6382 147.688C60.2382 147.688 60.7582 147.824 61.1982 148.096C61.6382 148.36 61.9742 148.728 62.2062 149.2C62.4462 149.672 62.5662 150.212 62.5662 150.82C62.5662 150.94 62.5542 151.044 62.5302 151.132H57.6942C57.7182 151.596 57.8302 151.988 58.0302 152.308C58.2302 152.628 58.4822 152.868 58.7862 153.028C59.0982 153.188 59.4222 153.268 59.7582 153.268C60.5422 153.268 61.1462 152.9 61.5702 152.164L62.4342 152.584C62.1702 153.08 61.8102 153.472 61.3542 153.76C60.9062 154.048 60.3622 154.192 59.7222 154.192ZM61.4862 150.292C61.4702 150.036 61.3982 149.78 61.2702 149.524C61.1422 149.268 60.9382 149.052 60.6582 148.876C60.3862 148.7 60.0422 148.612 59.6262 148.612C59.1462 148.612 58.7382 148.768 58.4022 149.08C58.0742 149.384 57.8582 149.788 57.7542 150.292H61.4862ZM65.9545 154.192C65.2985 154.192 64.7505 154.04 64.3105 153.736C63.8705 153.424 63.5585 153.028 63.3745 152.548L64.2865 152.14C64.4385 152.508 64.6625 152.792 64.9585 152.992C65.2625 153.192 65.5945 153.292 65.9545 153.292C66.3385 153.292 66.6665 153.216 66.9385 153.064C67.2105 152.904 67.3465 152.68 67.3465 152.392C67.3465 152.136 67.2385 151.932 67.0225 151.78C66.8065 151.62 66.4665 151.484 66.0025 151.372L65.2585 151.18C64.7705 151.06 64.3705 150.856 64.0585 150.568C63.7465 150.28 63.5905 149.908 63.5905 149.452C63.5905 149.1 63.6945 148.792 63.9025 148.528C64.1185 148.256 64.4025 148.048 64.7545 147.904C65.1065 147.76 65.4865 147.688 65.8945 147.688C66.4305 147.688 66.9065 147.804 67.3225 148.036C67.7465 148.268 68.0465 148.592 68.2225 149.008L67.3345 149.416C67.0625 148.872 66.5785 148.6 65.8825 148.6C65.5465 148.6 65.2505 148.68 64.9945 148.84C64.7465 148.992 64.6225 149.188 64.6225 149.428C64.6225 149.652 64.7105 149.836 64.8865 149.98C65.0625 150.116 65.3265 150.228 65.6785 150.316L66.5665 150.544C67.1665 150.696 67.6185 150.924 67.9225 151.228C68.2265 151.524 68.3785 151.888 68.3785 152.32C68.3785 152.696 68.2705 153.028 68.0545 153.316C67.8385 153.596 67.5465 153.812 67.1785 153.964C66.8105 154.116 66.4025 154.192 65.9545 154.192ZM72.273 154.192C71.689 154.192 71.165 154.052 70.701 153.772C70.237 153.492 69.873 153.108 69.609 152.62C69.353 152.124 69.225 151.568 69.225 150.952C69.225 150.36 69.345 149.816 69.585 149.32C69.833 148.824 70.181 148.428 70.629 148.132C71.077 147.836 71.597 147.688 72.189 147.688C72.789 147.688 73.309 147.824 73.749 148.096C74.189 148.36 74.525 148.728 74.757 149.2C74.997 149.672 75.117 150.212 75.117 150.82C75.117 150.94 75.105 151.044 75.081 151.132H70.245C70.269 151.596 70.381 151.988 70.581 152.308C70.781 152.628 71.033 152.868 71.337 153.028C71.649 153.188 71.973 153.268 72.309 153.268C73.093 153.268 73.697 152.9 74.121 152.164L74.985 152.584C74.721 153.08 74.361 153.472 73.905 153.76C73.457 154.048 72.913 154.192 72.273 154.192ZM74.037 150.292C74.021 150.036 73.949 149.78 73.821 149.524C73.693 149.268 73.489 149.052 73.209 148.876C72.937 148.7 72.593 148.612 72.177 148.612C71.697 148.612 71.289 148.768 70.953 149.08C70.625 149.384 70.409 149.788 70.305 150.292H74.037ZM81.8238 154.192C81.2398 154.192 80.7158 154.052 80.2518 153.772C79.7878 153.492 79.4238 153.108 79.1598 152.62C78.9038 152.124 78.7758 151.568 78.7758 150.952C78.7758 150.36 78.8958 149.816 79.1357 149.32C79.3838 148.824 79.7318 148.428 80.1798 148.132C80.6278 147.836 81.1478 147.688 81.7398 147.688C82.3398 147.688 82.8598 147.824 83.2998 148.096C83.7398 148.36 84.0758 148.728 84.3078 149.2C84.5478 149.672 84.6678 150.212 84.6678 150.82C84.6678 150.94 84.6558 151.044 84.6318 151.132H79.7958C79.8198 151.596 79.9318 151.988 80.1318 152.308C80.3318 152.628 80.5838 152.868 80.8878 153.028C81.1998 153.188 81.5238 153.268 81.8598 153.268C82.6438 153.268 83.2478 152.9 83.6718 152.164L84.5358 152.584C84.2718 153.08 83.9118 153.472 83.4558 153.76C83.0078 154.048 82.4638 154.192 81.8238 154.192ZM83.5878 150.292C83.5718 150.036 83.4998 149.78 83.3718 149.524C83.2438 149.268 83.0398 149.052 82.7598 148.876C82.4878 148.7 82.1438 148.612 81.7278 148.612C81.2478 148.612 80.8398 148.768 80.5038 149.08C80.1758 149.384 79.9598 149.788 79.8558 150.292H83.5878ZM87.3043 150.892L85.1803 147.88H86.3323L87.9163 150.148L89.4403 147.88H90.6283L88.4923 150.892L90.6763 154H89.4883L87.8923 151.648L86.3323 154H85.1443L87.3043 150.892ZM93.9439 154.096C93.6959 154.096 93.4639 154.056 93.2479 153.976C93.0399 153.896 92.8639 153.788 92.7199 153.652C92.5599 153.5 92.4399 153.324 92.3599 153.124C92.2799 152.924 92.2399 152.68 92.2399 152.392V148.804H91.1719V147.88H92.2399V146.152H93.2599V147.88H94.7479V148.804H93.2599V152.14C93.2599 152.476 93.3239 152.724 93.4519 152.884C93.6039 153.06 93.8239 153.148 94.1119 153.148C94.3439 153.148 94.5679 153.08 94.7839 152.944V153.94C94.6639 153.996 94.5399 154.036 94.4119 154.06C94.2919 154.084 94.1359 154.096 93.9439 154.096ZM98.4409 154.192C97.8569 154.192 97.3329 154.052 96.8689 153.772C96.4049 153.492 96.0409 153.108 95.7769 152.62C95.5209 152.124 95.3929 151.568 95.3929 150.952C95.3929 150.36 95.5129 149.816 95.7529 149.32C96.0009 148.824 96.3489 148.428 96.7969 148.132C97.2449 147.836 97.7649 147.688 98.3569 147.688C98.9569 147.688 99.4769 147.824 99.9169 148.096C100.357 148.36 100.693 148.728 100.925 149.2C101.165 149.672 101.285 150.212 101.285 150.82C101.285 150.94 101.273 151.044 101.249 151.132H96.4129C96.4369 151.596 96.5489 151.988 96.7489 152.308C96.9489 152.628 97.2009 152.868 97.5049 153.028C97.8169 153.188 98.1409 153.268 98.4769 153.268C99.2609 153.268 99.8649 152.9 100.289 152.164L101.153 152.584C100.889 153.08 100.529 153.472 100.073 153.76C99.6249 154.048 99.0809 154.192 98.4409 154.192ZM100.205 150.292C100.189 150.036 100.117 149.78 99.9889 149.524C99.8609 149.268 99.6569 149.052 99.3769 148.876C99.1049 148.7 98.7609 148.612 98.3449 148.612C97.8649 148.612 97.4569 148.768 97.1209 149.08C96.7929 149.384 96.5769 149.788 96.4729 150.292H100.205ZM102.479 147.88H103.451V148.78H103.499C103.667 148.476 103.935 148.22 104.303 148.012C104.671 147.796 105.063 147.688 105.479 147.688C106.215 147.688 106.775 147.904 107.159 148.336C107.551 148.76 107.747 149.34 107.747 150.076V154H106.727V150.232C106.727 149.664 106.591 149.252 106.319 148.996C106.047 148.74 105.675 148.612 105.203 148.612C104.875 148.612 104.579 148.704 104.315 148.888C104.059 149.072 103.859 149.316 103.715 149.62C103.571 149.916 103.499 150.228 103.499 150.556V154H102.479V147.88ZM109.805 146.752C109.605 146.752 109.433 146.68 109.289 146.536C109.145 146.392 109.073 146.22 109.073 146.02C109.073 145.82 109.145 145.652 109.289 145.516C109.433 145.372 109.605 145.3 109.805 145.3C110.005 145.3 110.177 145.372 110.321 145.516C110.465 145.652 110.537 145.82 110.537 146.02C110.537 146.22 110.465 146.392 110.321 146.536C110.185 146.68 110.013 146.752 109.805 146.752ZM109.301 147.88H110.309V154H109.301V147.88ZM114.674 154.192C114.074 154.192 113.534 154.048 113.054 153.76C112.574 153.472 112.198 153.08 111.926 152.584C111.662 152.088 111.53 151.54 111.53 150.94C111.53 150.34 111.662 149.792 111.926 149.296C112.198 148.8 112.574 148.408 113.054 148.12C113.534 147.832 114.074 147.688 114.674 147.688C115.274 147.688 115.814 147.832 116.294 148.12C116.774 148.408 117.146 148.8 117.41 149.296C117.682 149.792 117.818 150.34 117.818 150.94C117.818 151.54 117.682 152.088 117.41 152.584C117.146 153.08 116.774 153.472 116.294 153.76C115.814 154.048 115.274 154.192 114.674 154.192ZM114.674 153.268C115.05 153.268 115.398 153.176 115.718 152.992C116.046 152.8 116.306 152.528 116.498 152.176C116.698 151.824 116.798 151.412 116.798 150.94C116.798 150.468 116.698 150.056 116.498 149.704C116.306 149.352 116.046 149.084 115.718 148.9C115.398 148.708 115.05 148.612 114.674 148.612C114.298 148.612 113.946 148.708 113.618 148.9C113.29 149.084 113.026 149.352 112.826 149.704C112.634 150.056 112.538 150.468 112.538 150.94C112.538 151.412 112.634 151.824 112.826 152.176C113.026 152.528 113.29 152.8 113.618 152.992C113.946 153.176 114.298 153.268 114.674 153.268ZM118.885 147.88H119.857V148.78H119.905C120.073 148.476 120.341 148.22 120.709 148.012C121.077 147.796 121.469 147.688 121.885 147.688C122.621 147.688 123.181 147.904 123.565 148.336C123.957 148.76 124.153 149.34 124.153 150.076V154H123.133V150.232C123.133 149.664 122.997 149.252 122.725 148.996C122.453 148.74 122.081 148.612 121.609 148.612C121.281 148.612 120.985 148.704 120.721 148.888C120.465 149.072 120.265 149.316 120.121 149.62C119.977 149.916 119.905 150.228 119.905 150.556V154H118.885V147.88ZM127.689 154.192C127.033 154.192 126.485 154.04 126.045 153.736C125.605 153.424 125.293 153.028 125.109 152.548L126.021 152.14C126.173 152.508 126.397 152.792 126.693 152.992C126.997 153.192 127.329 153.292 127.689 153.292C128.073 153.292 128.401 153.216 128.673 153.064C128.945 152.904 129.081 152.68 129.081 152.392C129.081 152.136 128.973 151.932 128.757 151.78C128.541 151.62 128.201 151.484 127.737 151.372L126.993 151.18C126.505 151.06 126.105 150.856 125.793 150.568C125.481 150.28 125.325 149.908 125.325 149.452C125.325 149.1 125.429 148.792 125.637 148.528C125.853 148.256 126.137 148.048 126.489 147.904C126.841 147.76 127.221 147.688 127.629 147.688C128.165 147.688 128.641 147.804 129.057 148.036C129.481 148.268 129.781 148.592 129.957 149.008L129.069 149.416C128.797 148.872 128.313 148.6 127.617 148.6C127.281 148.6 126.985 148.68 126.729 148.84C126.481 148.992 126.357 149.188 126.357 149.428C126.357 149.652 126.445 149.836 126.621 149.98C126.797 150.116 127.061 150.228 127.413 150.316L128.301 150.544C128.901 150.696 129.353 150.924 129.657 151.228C129.961 151.524 130.113 151.888 130.113 152.32C130.113 152.696 130.005 153.028 129.789 153.316C129.573 153.596 129.281 153.812 128.913 153.964C128.545 154.116 128.137 154.192 127.689 154.192ZM136.786 154.192C136.194 154.192 135.662 154.052 135.19 153.772C134.718 153.484 134.35 153.096 134.086 152.608C133.822 152.112 133.69 151.556 133.69 150.94C133.69 150.324 133.822 149.768 134.086 149.272C134.35 148.776 134.718 148.388 135.19 148.108C135.662 147.828 136.194 147.688 136.786 147.688C137.45 147.688 138.006 147.844 138.454 148.156C138.91 148.46 139.234 148.868 139.426 149.38L138.502 149.764C138.35 149.388 138.122 149.104 137.818 148.912C137.522 148.712 137.162 148.612 136.738 148.612C136.378 148.612 136.042 148.712 135.73 148.912C135.418 149.104 135.166 149.376 134.974 149.728C134.79 150.08 134.698 150.484 134.698 150.94C134.698 151.396 134.79 151.8 134.974 152.152C135.166 152.504 135.418 152.78 135.73 152.98C136.042 153.172 136.378 153.268 136.738 153.268C137.17 153.268 137.542 153.168 137.854 152.968C138.166 152.768 138.398 152.484 138.55 152.116L139.462 152.5C139.254 153.004 138.918 153.412 138.454 153.724C137.998 154.036 137.442 154.192 136.786 154.192ZM142.462 154.192C142.014 154.192 141.614 154.104 141.262 153.928C140.91 153.752 140.638 153.512 140.446 153.208C140.254 152.896 140.158 152.544 140.158 152.152C140.158 151.504 140.402 151 140.89 150.64C141.378 150.272 141.994 150.088 142.738 150.088C143.106 150.088 143.446 150.128 143.758 150.208C144.078 150.288 144.322 150.38 144.49 150.484V150.112C144.49 149.656 144.33 149.292 144.01 149.02C143.69 148.74 143.286 148.6 142.798 148.6C142.454 148.6 142.138 148.676 141.85 148.828C141.562 148.972 141.334 149.176 141.166 149.44L140.398 148.864C140.638 148.496 140.966 148.208 141.382 148C141.806 147.792 142.274 147.688 142.786 147.688C143.618 147.688 144.27 147.908 144.742 148.348C145.222 148.78 145.462 149.372 145.462 150.124V154H144.49V153.124H144.442C144.266 153.42 144.002 153.672 143.65 153.88C143.298 154.088 142.902 154.192 142.462 154.192ZM142.558 153.292C142.902 153.292 143.222 153.204 143.518 153.028C143.814 152.852 144.05 152.616 144.226 152.32C144.402 152.024 144.49 151.7 144.49 151.348C144.298 151.22 144.062 151.116 143.782 151.036C143.502 150.956 143.206 150.916 142.894 150.916C142.334 150.916 141.91 151.032 141.622 151.264C141.342 151.496 141.202 151.796 141.202 152.164C141.202 152.5 141.33 152.772 141.586 152.98C141.842 153.188 142.166 153.292 142.558 153.292ZM146.881 147.88H147.853V148.78H147.901C148.069 148.476 148.337 148.22 148.705 148.012C149.073 147.796 149.465 147.688 149.881 147.688C150.617 147.688 151.177 147.904 151.561 148.336C151.953 148.76 152.149 149.34 152.149 150.076V154H151.129V150.232C151.129 149.664 150.993 149.252 150.721 148.996C150.449 148.74 150.077 148.612 149.605 148.612C149.277 148.612 148.981 148.704 148.717 148.888C148.461 149.072 148.261 149.316 148.117 149.62C147.973 149.916 147.901 150.228 147.901 150.556V154H146.881V147.88ZM158.533 154.192C157.877 154.192 157.329 154.04 156.889 153.736C156.449 153.424 156.137 153.028 155.953 152.548L156.865 152.14C157.017 152.508 157.241 152.792 157.537 152.992C157.841 153.192 158.173 153.292 158.533 153.292C158.917 153.292 159.245 153.216 159.517 153.064C159.789 152.904 159.925 152.68 159.925 152.392C159.925 152.136 159.817 151.932 159.601 151.78C159.385 151.62 159.045 151.484 158.581 151.372L157.837 151.18C157.349 151.06 156.949 150.856 156.637 150.568C156.325 150.28 156.169 149.908 156.169 149.452C156.169 149.1 156.273 148.792 156.481 148.528C156.697 148.256 156.981 148.048 157.333 147.904C157.685 147.76 158.065 147.688 158.473 147.688C159.009 147.688 159.485 147.804 159.901 148.036C160.325 148.268 160.625 148.592 160.801 149.008L159.913 149.416C159.641 148.872 159.157 148.6 158.461 148.6C158.125 148.6 157.829 148.68 157.573 148.84C157.325 148.992 157.201 149.188 157.201 149.428C157.201 149.652 157.289 149.836 157.465 149.98C157.641 150.116 157.905 150.228 158.257 150.316L159.145 150.544C159.745 150.696 160.197 150.924 160.501 151.228C160.805 151.524 160.957 151.888 160.957 152.32C160.957 152.696 160.849 153.028 160.633 153.316C160.417 153.596 160.125 153.812 159.757 153.964C159.389 154.116 158.981 154.192 158.533 154.192ZM164.851 154.192C164.267 154.192 163.743 154.052 163.279 153.772C162.815 153.492 162.451 153.108 162.187 152.62C161.931 152.124 161.803 151.568 161.803 150.952C161.803 150.36 161.923 149.816 162.163 149.32C162.411 148.824 162.759 148.428 163.207 148.132C163.655 147.836 164.175 147.688 164.767 147.688C165.367 147.688 165.887 147.824 166.327 148.096C166.767 148.36 167.103 148.728 167.335 149.2C167.575 149.672 167.695 150.212 167.695 150.82C167.695 150.94 167.683 151.044 167.659 151.132H162.823C162.847 151.596 162.959 151.988 163.159 152.308C163.359 152.628 163.611 152.868 163.915 153.028C164.227 153.188 164.551 153.268 164.887 153.268C165.671 153.268 166.275 152.9 166.699 152.164L167.563 152.584C167.299 153.08 166.939 153.472 166.483 153.76C166.035 154.048 165.491 154.192 164.851 154.192ZM166.615 150.292C166.599 150.036 166.527 149.78 166.399 149.524C166.271 149.268 166.067 149.052 165.787 148.876C165.515 148.7 165.171 148.612 164.755 148.612C164.275 148.612 163.867 148.768 163.531 149.08C163.203 149.384 162.987 149.788 162.883 150.292H166.615ZM171.671 154.192C171.087 154.192 170.563 154.052 170.099 153.772C169.635 153.492 169.271 153.108 169.007 152.62C168.751 152.124 168.623 151.568 168.623 150.952C168.623 150.36 168.743 149.816 168.983 149.32C169.231 148.824 169.579 148.428 170.027 148.132C170.475 147.836 170.995 147.688 171.587 147.688C172.187 147.688 172.707 147.824 173.147 148.096C173.587 148.36 173.923 148.728 174.155 149.2C174.395 149.672 174.515 150.212 174.515 150.82C174.515 150.94 174.503 151.044 174.479 151.132H169.643C169.667 151.596 169.779 151.988 169.979 152.308C170.179 152.628 170.431 152.868 170.735 153.028C171.047 153.188 171.371 153.268 171.707 153.268C172.491 153.268 173.095 152.9 173.519 152.164L174.383 152.584C174.119 153.08 173.759 153.472 173.303 153.76C172.855 154.048 172.311 154.192 171.671 154.192ZM173.435 150.292C173.419 150.036 173.347 149.78 173.219 149.524C173.091 149.268 172.887 149.052 172.607 148.876C172.335 148.7 171.991 148.612 171.575 148.612C171.095 148.612 170.687 148.768 170.351 149.08C170.023 149.384 169.807 149.788 169.703 150.292H173.435ZM180.454 154.192C180.006 154.192 179.606 154.104 179.254 153.928C178.902 153.752 178.63 153.512 178.438 153.208C178.246 152.896 178.15 152.544 178.15 152.152C178.15 151.504 178.394 151 178.882 150.64C179.37 150.272 179.986 150.088 180.73 150.088C181.098 150.088 181.438 150.128 181.75 150.208C182.07 150.288 182.314 150.38 182.482 150.484V150.112C182.482 149.656 182.322 149.292 182.002 149.02C181.682 148.74 181.278 148.6 180.79 148.6C180.446 148.6 180.13 148.676 179.842 148.828C179.554 148.972 179.326 149.176 179.158 149.44L178.39 148.864C178.63 148.496 178.958 148.208 179.374 148C179.798 147.792 180.266 147.688 180.778 147.688C181.61 147.688 182.262 147.908 182.734 148.348C183.214 148.78 183.454 149.372 183.454 150.124V154H182.482V153.124H182.434C182.258 153.42 181.994 153.672 181.642 153.88C181.29 154.088 180.894 154.192 180.454 154.192ZM180.55 153.292C180.894 153.292 181.214 153.204 181.51 153.028C181.806 152.852 182.042 152.616 182.218 152.32C182.394 152.024 182.482 151.7 182.482 151.348C182.29 151.22 182.054 151.116 181.774 151.036C181.494 150.956 181.198 150.916 180.886 150.916C180.326 150.916 179.902 151.032 179.614 151.264C179.334 151.496 179.194 151.796 179.194 152.164C179.194 152.5 179.322 152.772 179.578 152.98C179.834 153.188 180.158 153.292 180.55 153.292ZM184.873 147.88H185.845V148.78H185.893C186.061 148.476 186.329 148.22 186.697 148.012C187.065 147.796 187.457 147.688 187.873 147.688C188.609 147.688 189.169 147.904 189.553 148.336C189.945 148.76 190.141 149.34 190.141 150.076V154H189.121V150.232C189.121 149.664 188.985 149.252 188.713 148.996C188.441 148.74 188.069 148.612 187.597 148.612C187.269 148.612 186.973 148.704 186.709 148.888C186.453 149.072 186.253 149.316 186.109 149.62C185.965 149.916 185.893 150.228 185.893 150.556V154H184.873V147.88ZM194.192 154.192C193.648 154.192 193.152 154.052 192.704 153.772C192.264 153.492 191.916 153.108 191.66 152.62C191.404 152.124 191.276 151.564 191.276 150.94C191.276 150.324 191.404 149.768 191.66 149.272C191.916 148.776 192.264 148.388 192.704 148.108C193.152 147.828 193.648 147.688 194.192 147.688C194.664 147.688 195.084 147.796 195.452 148.012C195.82 148.22 196.1 148.48 196.292 148.792H196.34L196.292 147.94V145.408H197.312V154H196.34V153.1H196.292C196.1 153.404 195.82 153.664 195.452 153.88C195.084 154.088 194.664 154.192 194.192 154.192ZM194.312 153.268C194.672 153.268 195.004 153.172 195.308 152.98C195.62 152.788 195.868 152.516 196.052 152.164C196.244 151.812 196.34 151.404 196.34 150.94C196.34 150.476 196.244 150.068 196.052 149.716C195.868 149.364 195.62 149.092 195.308 148.9C195.004 148.708 194.672 148.612 194.312 148.612C193.96 148.612 193.628 148.708 193.316 148.9C193.004 149.092 192.752 149.368 192.56 149.728C192.376 150.08 192.284 150.484 192.284 150.94C192.284 151.396 192.376 151.804 192.56 152.164C192.752 152.516 193.004 152.788 193.316 152.98C193.628 153.172 193.96 153.268 194.312 153.268ZM204.38 154.192C203.788 154.192 203.256 154.052 202.784 153.772C202.312 153.484 201.944 153.096 201.68 152.608C201.416 152.112 201.284 151.556 201.284 150.94C201.284 150.324 201.416 149.768 201.68 149.272C201.944 148.776 202.312 148.388 202.784 148.108C203.256 147.828 203.788 147.688 204.38 147.688C205.044 147.688 205.6 147.844 206.048 148.156C206.504 148.46 206.828 148.868 207.02 149.38L206.096 149.764C205.944 149.388 205.716 149.104 205.412 148.912C205.116 148.712 204.756 148.612 204.332 148.612C203.972 148.612 203.636 148.712 203.324 148.912C203.012 149.104 202.76 149.376 202.568 149.728C202.384 150.08 202.292 150.484 202.292 150.94C202.292 151.396 202.384 151.8 202.568 152.152C202.76 152.504 203.012 152.78 203.324 152.98C203.636 153.172 203.972 153.268 204.332 153.268C204.764 153.268 205.136 153.168 205.448 152.968C205.76 152.768 205.992 152.484 206.144 152.116L207.056 152.5C206.848 153.004 206.512 153.412 206.048 153.724C205.592 154.036 205.036 154.192 204.38 154.192ZM208.158 145.408H209.178V147.94L209.13 148.78H209.178C209.346 148.468 209.61 148.208 209.97 148C210.338 147.792 210.738 147.688 211.17 147.688C211.914 147.688 212.482 147.908 212.874 148.348C213.266 148.78 213.462 149.356 213.462 150.076V154H212.442V150.232C212.442 149.68 212.302 149.272 212.022 149.008C211.742 148.744 211.378 148.612 210.93 148.612C210.61 148.612 210.314 148.708 210.042 148.9C209.778 149.092 209.566 149.34 209.406 149.644C209.254 149.948 209.178 150.264 209.178 150.592V154H208.158V145.408ZM216.829 154.192C216.381 154.192 215.981 154.104 215.629 153.928C215.277 153.752 215.005 153.512 214.813 153.208C214.621 152.896 214.525 152.544 214.525 152.152C214.525 151.504 214.769 151 215.257 150.64C215.745 150.272 216.361 150.088 217.105 150.088C217.473 150.088 217.813 150.128 218.125 150.208C218.445 150.288 218.689 150.38 218.857 150.484V150.112C218.857 149.656 218.697 149.292 218.377 149.02C218.057 148.74 217.653 148.6 217.165 148.6C216.821 148.6 216.505 148.676 216.217 148.828C215.929 148.972 215.701 149.176 215.533 149.44L214.765 148.864C215.005 148.496 215.333 148.208 215.749 148C216.173 147.792 216.641 147.688 217.153 147.688C217.985 147.688 218.637 147.908 219.109 148.348C219.589 148.78 219.829 149.372 219.829 150.124V154H218.857V153.124H218.809C218.633 153.42 218.369 153.672 218.017 153.88C217.665 154.088 217.269 154.192 216.829 154.192ZM216.925 153.292C217.269 153.292 217.589 153.204 217.885 153.028C218.181 152.852 218.417 152.616 218.593 152.32C218.769 152.024 218.857 151.7 218.857 151.348C218.665 151.22 218.429 151.116 218.149 151.036C217.869 150.956 217.573 150.916 217.261 150.916C216.701 150.916 216.277 151.032 215.989 151.264C215.709 151.496 215.569 151.796 215.569 152.164C215.569 152.5 215.697 152.772 215.953 152.98C216.209 153.188 216.533 153.292 216.925 153.292ZM221.248 147.88H222.22V148.78H222.268C222.436 148.476 222.704 148.22 223.072 148.012C223.44 147.796 223.832 147.688 224.248 147.688C224.984 147.688 225.544 147.904 225.928 148.336C226.32 148.76 226.516 149.34 226.516 150.076V154H225.496V150.232C225.496 149.664 225.36 149.252 225.088 148.996C224.816 148.74 224.444 148.612 223.972 148.612C223.644 148.612 223.348 148.704 223.084 148.888C222.828 149.072 222.628 149.316 222.484 149.62C222.34 149.916 222.268 150.228 222.268 150.556V154H221.248V147.88ZM230.604 156.784C229.884 156.784 229.288 156.616 228.816 156.28C228.352 155.944 228.04 155.54 227.88 155.068L228.804 154.672C228.94 155.024 229.164 155.308 229.476 155.524C229.796 155.748 230.172 155.86 230.604 155.86C231.236 155.86 231.724 155.676 232.068 155.308C232.42 154.94 232.596 154.42 232.596 153.748V153.064H232.548C232.348 153.376 232.064 153.632 231.696 153.832C231.336 154.024 230.924 154.12 230.46 154.12C229.932 154.12 229.448 153.984 229.008 153.712C228.576 153.44 228.232 153.06 227.976 152.572C227.72 152.084 227.592 151.528 227.592 150.904C227.592 150.288 227.72 149.736 227.976 149.248C228.232 148.752 228.576 148.368 229.008 148.096C229.448 147.824 229.932 147.688 230.46 147.688C230.924 147.688 231.336 147.788 231.696 147.988C232.064 148.18 232.348 148.436 232.548 148.756H232.596V147.88H233.568V153.76C233.568 154.744 233.296 155.492 232.752 156.004C232.208 156.524 231.492 156.784 230.604 156.784ZM230.604 153.196C230.972 153.196 231.304 153.104 231.6 152.92C231.904 152.736 232.144 152.472 232.32 152.128C232.504 151.784 232.596 151.376 232.596 150.904C232.596 150.424 232.504 150.012 232.32 149.668C232.144 149.324 231.904 149.064 231.6 148.888C231.304 148.704 230.972 148.612 230.604 148.612C230.236 148.612 229.9 148.704 229.596 148.888C229.292 149.072 229.048 149.336 228.864 149.68C228.688 150.024 228.6 150.432 228.6 150.904C228.6 151.376 228.688 151.788 228.864 152.14C229.048 152.484 229.292 152.748 229.596 152.932C229.9 153.108 230.236 153.196 230.604 153.196ZM237.742 154.192C237.158 154.192 236.634 154.052 236.17 153.772C235.706 153.492 235.342 153.108 235.078 152.62C234.822 152.124 234.694 151.568 234.694 150.952C234.694 150.36 234.814 149.816 235.054 149.32C235.302 148.824 235.65 148.428 236.098 148.132C236.546 147.836 237.066 147.688 237.658 147.688C238.258 147.688 238.778 147.824 239.218 148.096C239.658 148.36 239.994 148.728 240.226 149.2C240.466 149.672 240.586 150.212 240.586 150.82C240.586 150.94 240.574 151.044 240.55 151.132H235.714C235.738 151.596 235.85 151.988 236.05 152.308C236.25 152.628 236.502 152.868 236.806 153.028C237.118 153.188 237.442 153.268 237.778 153.268C238.562 153.268 239.166 152.9 239.59 152.164L240.454 152.584C240.19 153.08 239.83 153.472 239.374 153.76C238.926 154.048 238.382 154.192 237.742 154.192ZM239.506 150.292C239.49 150.036 239.418 149.78 239.29 149.524C239.162 149.268 238.958 149.052 238.678 148.876C238.406 148.7 238.062 148.612 237.646 148.612C237.166 148.612 236.758 148.768 236.422 149.08C236.094 149.384 235.878 149.788 235.774 150.292H239.506ZM245.169 146.752C244.969 146.752 244.797 146.68 244.653 146.536C244.509 146.392 244.437 146.22 244.437 146.02C244.437 145.82 244.509 145.652 244.653 145.516C244.797 145.372 244.969 145.3 245.169 145.3C245.369 145.3 245.541 145.372 245.685 145.516C245.829 145.652 245.901 145.82 245.901 146.02C245.901 146.22 245.829 146.392 245.685 146.536C245.549 146.68 245.377 146.752 245.169 146.752ZM244.665 147.88H245.673V154H244.665V147.88ZM247.276 147.88H248.248V148.78H248.296C248.464 148.476 248.732 148.22 249.1 148.012C249.468 147.796 249.86 147.688 250.276 147.688C251.012 147.688 251.572 147.904 251.956 148.336C252.348 148.76 252.544 149.34 252.544 150.076V154H251.524V150.232C251.524 149.664 251.388 149.252 251.116 148.996C250.844 148.74 250.472 148.612 250 148.612C249.672 148.612 249.376 148.704 249.112 148.888C248.856 149.072 248.656 149.316 248.512 149.62C248.368 149.916 248.296 150.228 248.296 150.556V154H247.276V147.88ZM254.593 148.804H253.465V147.88H254.593V147.22C254.593 146.836 254.681 146.5 254.857 146.212C255.033 145.924 255.269 145.704 255.565 145.552C255.861 145.392 256.189 145.312 256.549 145.312C256.893 145.312 257.193 145.36 257.449 145.456V146.452C257.305 146.396 257.169 146.352 257.041 146.32C256.913 146.28 256.761 146.26 256.585 146.26C256.321 146.26 256.093 146.356 255.901 146.548C255.709 146.732 255.613 146.992 255.613 147.328V147.88H257.185V148.804H255.613V154H254.593V148.804ZM260.877 154.192C260.277 154.192 259.737 154.048 259.257 153.76C258.777 153.472 258.401 153.08 258.129 152.584C257.865 152.088 257.733 151.54 257.733 150.94C257.733 150.34 257.865 149.792 258.129 149.296C258.401 148.8 258.777 148.408 259.257 148.12C259.737 147.832 260.277 147.688 260.877 147.688C261.477 147.688 262.017 147.832 262.497 148.12C262.977 148.408 263.349 148.8 263.613 149.296C263.885 149.792 264.021 150.34 264.021 150.94C264.021 151.54 263.885 152.088 263.613 152.584C263.349 153.08 262.977 153.472 262.497 153.76C262.017 154.048 261.477 154.192 260.877 154.192ZM260.877 153.268C261.253 153.268 261.601 153.176 261.921 152.992C262.249 152.8 262.509 152.528 262.701 152.176C262.901 151.824 263.001 151.412 263.001 150.94C263.001 150.468 262.901 150.056 262.701 149.704C262.509 149.352 262.249 149.084 261.921 148.9C261.601 148.708 261.253 148.612 260.877 148.612C260.501 148.612 260.149 148.708 259.821 148.9C259.493 149.084 259.229 149.352 259.029 149.704C258.837 150.056 258.741 150.468 258.741 150.94C258.741 151.412 258.837 151.824 259.029 152.176C259.229 152.528 259.493 152.8 259.821 152.992C260.149 153.176 260.501 153.268 260.877 153.268ZM265.088 147.88H266.06V148.864H266.108C266.228 148.528 266.46 148.252 266.804 148.036C267.148 147.812 267.508 147.7 267.884 147.7C268.164 147.7 268.404 147.74 268.604 147.82V148.924C268.348 148.796 268.06 148.732 267.74 148.732C267.444 148.732 267.172 148.816 266.924 148.984C266.676 149.152 266.476 149.38 266.324 149.668C266.18 149.948 266.108 150.252 266.108 150.58V154H265.088V147.88ZM269.588 147.88H270.56V148.78H270.608C270.784 148.468 271.048 148.208 271.4 148C271.752 147.792 272.124 147.688 272.516 147.688C272.964 147.688 273.352 147.796 273.68 148.012C274.016 148.228 274.256 148.516 274.4 148.876C274.616 148.516 274.9 148.228 275.252 148.012C275.612 147.796 276.028 147.688 276.5 147.688C277.204 147.688 277.732 147.904 278.084 148.336C278.444 148.76 278.624 149.34 278.624 150.076V154H277.616V150.232C277.616 149.664 277.5 149.252 277.268 148.996C277.036 148.74 276.692 148.612 276.236 148.612C275.932 148.612 275.656 148.7 275.408 148.876C275.16 149.052 274.964 149.288 274.82 149.584C274.684 149.88 274.616 150.2 274.616 150.544V154H273.596V150.244C273.596 149.668 273.48 149.252 273.248 148.996C273.016 148.74 272.676 148.612 272.228 148.612C271.924 148.612 271.648 148.704 271.4 148.888C271.152 149.064 270.956 149.304 270.812 149.608C270.676 149.904 270.608 150.224 270.608 150.568V154H269.588V147.88ZM281.985 154.192C281.537 154.192 281.137 154.104 280.785 153.928C280.433 153.752 280.161 153.512 279.969 153.208C279.777 152.896 279.681 152.544 279.681 152.152C279.681 151.504 279.925 151 280.413 150.64C280.901 150.272 281.517 150.088 282.261 150.088C282.629 150.088 282.969 150.128 283.281 150.208C283.601 150.288 283.845 150.38 284.013 150.484V150.112C284.013 149.656 283.853 149.292 283.533 149.02C283.213 148.74 282.809 148.6 282.321 148.6C281.977 148.6 281.661 148.676 281.373 148.828C281.085 148.972 280.857 149.176 280.689 149.44L279.921 148.864C280.161 148.496 280.489 148.208 280.905 148C281.329 147.792 281.797 147.688 282.309 147.688C283.141 147.688 283.793 147.908 284.265 148.348C284.745 148.78 284.985 149.372 284.985 150.124V154H284.013V153.124H283.965C283.789 153.42 283.525 153.672 283.173 153.88C282.821 154.088 282.425 154.192 281.985 154.192ZM282.081 153.292C282.425 153.292 282.745 153.204 283.041 153.028C283.337 152.852 283.573 152.616 283.749 152.32C283.925 152.024 284.013 151.7 284.013 151.348C283.821 151.22 283.585 151.116 283.305 151.036C283.025 150.956 282.729 150.916 282.417 150.916C281.857 150.916 281.433 151.032 281.145 151.264C280.865 151.496 280.725 151.796 280.725 152.164C280.725 152.5 280.853 152.772 281.109 152.98C281.365 153.188 281.689 153.292 282.081 153.292ZM288.639 154.096C288.391 154.096 288.159 154.056 287.943 153.976C287.735 153.896 287.559 153.788 287.415 153.652C287.255 153.5 287.135 153.324 287.055 153.124C286.975 152.924 286.935 152.68 286.935 152.392V148.804H285.867V147.88H286.935V146.152H287.955V147.88H289.443V148.804H287.955V152.14C287.955 152.476 288.019 152.724 288.147 152.884C288.299 153.06 288.519 153.148 288.807 153.148C289.039 153.148 289.263 153.08 289.479 152.944V153.94C289.359 153.996 289.235 154.036 289.107 154.06C288.987 154.084 288.831 154.096 288.639 154.096ZM291.34 146.752C291.14 146.752 290.968 146.68 290.824 146.536C290.68 146.392 290.608 146.22 290.608 146.02C290.608 145.82 290.68 145.652 290.824 145.516C290.968 145.372 291.14 145.3 291.34 145.3C291.54 145.3 291.712 145.372 291.856 145.516C292 145.652 292.072 145.82 292.072 146.02C292.072 146.22 292 146.392 291.856 146.536C291.72 146.68 291.548 146.752 291.34 146.752ZM290.836 147.88H291.844V154H290.836V147.88ZM296.209 154.192C295.609 154.192 295.069 154.048 294.589 153.76C294.109 153.472 293.733 153.08 293.461 152.584C293.197 152.088 293.065 151.54 293.065 150.94C293.065 150.34 293.197 149.792 293.461 149.296C293.733 148.8 294.109 148.408 294.589 148.12C295.069 147.832 295.609 147.688 296.209 147.688C296.809 147.688 297.349 147.832 297.829 148.12C298.309 148.408 298.681 148.8 298.945 149.296C299.217 149.792 299.353 150.34 299.353 150.94C299.353 151.54 299.217 152.088 298.945 152.584C298.681 153.08 298.309 153.472 297.829 153.76C297.349 154.048 296.809 154.192 296.209 154.192ZM296.209 153.268C296.585 153.268 296.933 153.176 297.253 152.992C297.581 152.8 297.841 152.528 298.033 152.176C298.233 151.824 298.333 151.412 298.333 150.94C298.333 150.468 298.233 150.056 298.033 149.704C297.841 149.352 297.581 149.084 297.253 148.9C296.933 148.708 296.585 148.612 296.209 148.612C295.833 148.612 295.481 148.708 295.153 148.9C294.825 149.084 294.561 149.352 294.361 149.704C294.169 150.056 294.073 150.468 294.073 150.94C294.073 151.412 294.169 151.824 294.361 152.176C294.561 152.528 294.825 152.8 295.153 152.992C295.481 153.176 295.833 153.268 296.209 153.268ZM300.42 147.88H301.392V148.78H301.44C301.608 148.476 301.876 148.22 302.244 148.012C302.612 147.796 303.004 147.688 303.42 147.688C304.156 147.688 304.716 147.904 305.1 148.336C305.492 148.76 305.688 149.34 305.688 150.076V154H304.668V150.232C304.668 149.664 304.532 149.252 304.26 148.996C303.988 148.74 303.616 148.612 303.144 148.612C302.816 148.612 302.52 148.704 302.256 148.888C302 149.072 301.8 149.316 301.656 149.62C301.512 149.916 301.44 150.228 301.44 150.556V154H300.42V147.88ZM46.576 169.192C45.976 169.192 45.436 169.048 44.956 168.76C44.476 168.472 44.1 168.08 43.828 167.584C43.564 167.088 43.432 166.54 43.432 165.94C43.432 165.34 43.564 164.792 43.828 164.296C44.1 163.8 44.476 163.408 44.956 163.12C45.436 162.832 45.976 162.688 46.576 162.688C47.176 162.688 47.716 162.832 48.196 163.12C48.676 163.408 49.048 163.8 49.312 164.296C49.584 164.792 49.72 165.34 49.72 165.94C49.72 166.54 49.584 167.088 49.312 167.584C49.048 168.08 48.676 168.472 48.196 168.76C47.716 169.048 47.176 169.192 46.576 169.192ZM46.576 168.268C46.952 168.268 47.3 168.176 47.62 167.992C47.948 167.8 48.208 167.528 48.4 167.176C48.6 166.824 48.7 166.412 48.7 165.94C48.7 165.468 48.6 165.056 48.4 164.704C48.208 164.352 47.948 164.084 47.62 163.9C47.3 163.708 46.952 163.612 46.576 163.612C46.2 163.612 45.848 163.708 45.52 163.9C45.192 164.084 44.928 164.352 44.728 164.704C44.536 165.056 44.44 165.468 44.44 165.94C44.44 166.412 44.536 166.824 44.728 167.176C44.928 167.528 45.192 167.8 45.52 167.992C45.848 168.176 46.2 168.268 46.576 168.268ZM50.7873 162.88H51.7593V163.78H51.8073C51.9753 163.476 52.2433 163.22 52.6113 163.012C52.9793 162.796 53.3713 162.688 53.7873 162.688C54.5233 162.688 55.0833 162.904 55.4673 163.336C55.8593 163.76 56.0553 164.34 56.0553 165.076V169H55.0353V165.232C55.0353 164.664 54.8993 164.252 54.6273 163.996C54.3553 163.74 53.9833 163.612 53.5113 163.612C53.1833 163.612 52.8873 163.704 52.6233 163.888C52.3673 164.072 52.1673 164.316 52.0233 164.62C51.8793 164.916 51.8073 165.228 51.8073 165.556V169H50.7873V162.88ZM62.6549 169.096C62.4069 169.096 62.1749 169.056 61.9589 168.976C61.7509 168.896 61.5749 168.788 61.4309 168.652C61.2709 168.5 61.1509 168.324 61.0709 168.124C60.9909 167.924 60.9509 167.68 60.9509 167.392V163.804H59.8829V162.88H60.9509V161.152H61.9709V162.88H63.4589V163.804H61.9709V167.14C61.9709 167.476 62.0349 167.724 62.1629 167.884C62.3149 168.06 62.5349 168.148 62.8229 168.148C63.0549 168.148 63.2789 168.08 63.4949 167.944V168.94C63.3749 168.996 63.2509 169.036 63.1229 169.06C63.0029 169.084 62.8469 169.096 62.6549 169.096ZM64.756 160.408H65.776V162.94L65.728 163.78H65.776C65.944 163.468 66.208 163.208 66.568 163C66.936 162.792 67.336 162.688 67.768 162.688C68.512 162.688 69.08 162.908 69.472 163.348C69.864 163.78 70.06 164.356 70.06 165.076V169H69.04V165.232C69.04 164.68 68.9 164.272 68.62 164.008C68.34 163.744 67.976 163.612 67.528 163.612C67.208 163.612 66.912 163.708 66.64 163.9C66.376 164.092 66.164 164.34 66.004 164.644C65.852 164.948 65.776 165.264 65.776 165.592V169H64.756V160.408ZM72.1294 161.752C71.9294 161.752 71.7574 161.68 71.6134 161.536C71.4694 161.392 71.3974 161.22 71.3974 161.02C71.3974 160.82 71.4694 160.652 71.6134 160.516C71.7574 160.372 71.9294 160.3 72.1294 160.3C72.3294 160.3 72.5014 160.372 72.6454 160.516C72.7894 160.652 72.8614 160.82 72.8614 161.02C72.8614 161.22 72.7894 161.392 72.6454 161.536C72.5094 161.68 72.3374 161.752 72.1294 161.752ZM71.6254 162.88H72.6334V169H71.6254V162.88ZM76.3725 169.192C75.7165 169.192 75.1685 169.04 74.7285 168.736C74.2885 168.424 73.9765 168.028 73.7925 167.548L74.7045 167.14C74.8565 167.508 75.0805 167.792 75.3765 167.992C75.6805 168.192 76.0125 168.292 76.3725 168.292C76.7565 168.292 77.0845 168.216 77.3565 168.064C77.6285 167.904 77.7645 167.68 77.7645 167.392C77.7645 167.136 77.6565 166.932 77.4405 166.78C77.2245 166.62 76.8845 166.484 76.4205 166.372L75.6765 166.18C75.1885 166.06 74.7885 165.856 74.4765 165.568C74.1645 165.28 74.0085 164.908 74.0085 164.452C74.0085 164.1 74.1125 163.792 74.3205 163.528C74.5365 163.256 74.8205 163.048 75.1725 162.904C75.5245 162.76 75.9045 162.688 76.3125 162.688C76.8485 162.688 77.3245 162.804 77.7405 163.036C78.1645 163.268 78.4645 163.592 78.6405 164.008L77.7525 164.416C77.4805 163.872 76.9965 163.6 76.3005 163.6C75.9645 163.6 75.6685 163.68 75.4125 163.84C75.1645 163.992 75.0405 164.188 75.0405 164.428C75.0405 164.652 75.1285 164.836 75.3045 164.98C75.4805 165.116 75.7445 165.228 76.0965 165.316L76.9845 165.544C77.5845 165.696 78.0365 165.924 78.3405 166.228C78.6445 166.524 78.7965 166.888 78.7965 167.32C78.7965 167.696 78.6885 168.028 78.4725 168.316C78.2565 168.596 77.9645 168.812 77.5965 168.964C77.2285 169.116 76.8205 169.192 76.3725 169.192ZM84.8334 169.192C84.1774 169.192 83.6294 169.04 83.1894 168.736C82.7494 168.424 82.4374 168.028 82.2534 167.548L83.1654 167.14C83.3174 167.508 83.5414 167.792 83.8374 167.992C84.1414 168.192 84.4734 168.292 84.8334 168.292C85.2174 168.292 85.5454 168.216 85.8174 168.064C86.0894 167.904 86.2254 167.68 86.2254 167.392C86.2254 167.136 86.1174 166.932 85.9014 166.78C85.6854 166.62 85.3454 166.484 84.8814 166.372L84.1374 166.18C83.6494 166.06 83.2494 165.856 82.9374 165.568C82.6254 165.28 82.4694 164.908 82.4694 164.452C82.4694 164.1 82.5734 163.792 82.7814 163.528C82.9974 163.256 83.2814 163.048 83.6334 162.904C83.9854 162.76 84.3654 162.688 84.7734 162.688C85.3094 162.688 85.7854 162.804 86.2014 163.036C86.6254 163.268 86.9254 163.592 87.1014 164.008L86.2134 164.416C85.9414 163.872 85.4574 163.6 84.7614 163.6C84.4254 163.6 84.1294 163.68 83.8734 163.84C83.6254 163.992 83.5014 164.188 83.5014 164.428C83.5014 164.652 83.5894 164.836 83.7654 164.98C83.9414 165.116 84.2054 165.228 84.5574 165.316L85.4454 165.544C86.0454 165.696 86.4974 165.924 86.8014 166.228C87.1054 166.524 87.2574 166.888 87.2574 167.32C87.2574 167.696 87.1494 168.028 86.9334 168.316C86.7174 168.596 86.4254 168.812 86.0574 168.964C85.6894 169.116 85.2814 169.192 84.8334 169.192ZM88.9107 161.752C88.7107 161.752 88.5387 161.68 88.3947 161.536C88.2507 161.392 88.1787 161.22 88.1787 161.02C88.1787 160.82 88.2507 160.652 88.3947 160.516C88.5387 160.372 88.7107 160.3 88.9107 160.3C89.1107 160.3 89.2827 160.372 89.4267 160.516C89.5707 160.652 89.6427 160.82 89.6427 161.02C89.6427 161.22 89.5707 161.392 89.4267 161.536C89.2907 161.68 89.1187 161.752 88.9107 161.752ZM88.4067 162.88H89.4147V169H88.4067V162.88ZM93.3111 169.096C93.0631 169.096 92.8311 169.056 92.6151 168.976C92.4071 168.896 92.2311 168.788 92.0871 168.652C91.9271 168.5 91.8071 168.324 91.7271 168.124C91.6471 167.924 91.6071 167.68 91.6071 167.392V163.804H90.5391V162.88H91.6071V161.152H92.6271V162.88H94.1151V163.804H92.6271V167.14C92.6271 167.476 92.6911 167.724 92.8191 167.884C92.9711 168.06 93.1911 168.148 93.4791 168.148C93.7111 168.148 93.9351 168.08 94.1511 167.944V168.94C94.0311 168.996 93.9071 169.036 93.7791 169.06C93.6591 169.084 93.5031 169.096 93.3111 169.096ZM97.8081 169.192C97.2241 169.192 96.7001 169.052 96.2361 168.772C95.7721 168.492 95.4081 168.108 95.1441 167.62C94.8881 167.124 94.7601 166.568 94.7601 165.952C94.7601 165.36 94.8801 164.816 95.1201 164.32C95.3681 163.824 95.7161 163.428 96.1641 163.132C96.6121 162.836 97.1321 162.688 97.7241 162.688C98.3241 162.688 98.8441 162.824 99.2841 163.096C99.7241 163.36 100.06 163.728 100.292 164.2C100.532 164.672 100.652 165.212 100.652 165.82C100.652 165.94 100.64 166.044 100.616 166.132H95.7801C95.8041 166.596 95.9161 166.988 96.1161 167.308C96.3161 167.628 96.5681 167.868 96.8721 168.028C97.1841 168.188 97.5081 168.268 97.8441 168.268C98.6281 168.268 99.2321 167.9 99.6561 167.164L100.52 167.584C100.256 168.08 99.8961 168.472 99.4401 168.76C98.9921 169.048 98.4481 169.192 97.8081 169.192ZM99.5721 165.292C99.5561 165.036 99.4841 164.78 99.3561 164.524C99.2281 164.268 99.0241 164.052 98.7441 163.876C98.4721 163.7 98.1281 163.612 97.7121 163.612C97.2321 163.612 96.8241 163.768 96.4881 164.08C96.1601 164.384 95.9441 164.788 95.8401 165.292H99.5721ZM102.518 169.072C102.302 169.072 102.118 169 101.966 168.856C101.822 168.704 101.75 168.52 101.75 168.304C101.75 168.096 101.822 167.92 101.966 167.776C102.118 167.624 102.302 167.548 102.518 167.548C102.726 167.548 102.902 167.624 103.046 167.776C103.198 167.92 103.274 168.096 103.274 168.304C103.274 168.52 103.198 168.704 103.046 168.856C102.902 169 102.726 169.072 102.518 169.072Z" fill="black"/>
<rect x="267" y="178" width="40" height="40" fill="#E2E2E3"/>
<path d="M77.084 196.88H78.176L80.072 201.8H80.096L82.016 196.88H83.084L80.588 203H79.556L77.084 196.88ZM84.5201 195.752C84.3201 195.752 84.1481 195.68 84.0041 195.536C83.8601 195.392 83.7881 195.22 83.7881 195.02C83.7881 194.82 83.8601 194.652 84.0041 194.516C84.1481 194.372 84.3201 194.3 84.5201 194.3C84.7201 194.3 84.8921 194.372 85.0361 194.516C85.1801 194.652 85.2521 194.82 85.2521 195.02C85.2521 195.22 85.1801 195.392 85.0361 195.536C84.9001 195.68 84.7281 195.752 84.5201 195.752ZM84.0161 196.88H85.0241V203H84.0161V196.88ZM89.1605 203.192C88.6165 203.192 88.1205 203.052 87.6725 202.772C87.2325 202.492 86.8845 202.108 86.6285 201.62C86.3725 201.124 86.2445 200.564 86.2445 199.94C86.2445 199.324 86.3725 198.768 86.6285 198.272C86.8845 197.776 87.2325 197.388 87.6725 197.108C88.1205 196.828 88.6165 196.688 89.1605 196.688C89.6325 196.688 90.0525 196.796 90.4205 197.012C90.7885 197.22 91.0685 197.48 91.2605 197.792H91.3085L91.2605 196.94V194.408H92.2805V203H91.3085V202.1H91.2605C91.0685 202.404 90.7885 202.664 90.4205 202.88C90.0525 203.088 89.6325 203.192 89.1605 203.192ZM89.2805 202.268C89.6405 202.268 89.9725 202.172 90.2765 201.98C90.5885 201.788 90.8365 201.516 91.0205 201.164C91.2125 200.812 91.3085 200.404 91.3085 199.94C91.3085 199.476 91.2125 199.068 91.0205 198.716C90.8365 198.364 90.5885 198.092 90.2765 197.9C89.9725 197.708 89.6405 197.612 89.2805 197.612C88.9285 197.612 88.5965 197.708 88.2845 197.9C87.9725 198.092 87.7205 198.368 87.5285 198.728C87.3445 199.08 87.2525 199.484 87.2525 199.94C87.2525 200.396 87.3445 200.804 87.5285 201.164C87.7205 201.516 87.9725 201.788 88.2845 201.98C88.5965 202.172 88.9285 202.268 89.2805 202.268ZM93.9913 194.408H94.9993V203H93.9913V194.408ZM102.888 202.676C102.24 203.02 101.54 203.192 100.788 203.192C99.9638 203.192 99.2158 202.992 98.5438 202.592C97.8718 202.192 97.3438 201.652 96.9598 200.972C96.5758 200.284 96.3838 199.528 96.3838 198.704C96.3838 197.888 96.5758 197.136 96.9598 196.448C97.3438 195.76 97.8718 195.216 98.5438 194.816C99.2158 194.416 99.9638 194.216 100.788 194.216C101.612 194.216 102.36 194.416 103.032 194.816C103.704 195.216 104.232 195.76 104.616 196.448C105.008 197.136 105.204 197.888 105.204 198.704C105.204 199.384 105.068 200.024 104.796 200.624C104.532 201.216 104.156 201.72 103.668 202.136L104.268 203.024L103.476 203.54L102.888 202.676ZM100.788 202.22C101.324 202.22 101.84 202.096 102.336 201.848L101.292 200.288L102.084 199.748L103.116 201.296C103.444 200.984 103.7 200.608 103.884 200.168C104.068 199.72 104.16 199.232 104.16 198.704C104.16 198.024 104.008 197.42 103.704 196.892C103.408 196.356 103 195.94 102.48 195.644C101.968 195.34 101.404 195.188 100.788 195.188C100.172 195.188 99.6078 195.34 99.0958 195.644C98.5838 195.94 98.1758 196.356 97.8718 196.892C97.5678 197.428 97.4158 198.032 97.4158 198.704C97.4158 199.376 97.5678 199.98 97.8718 200.516C98.1758 201.052 98.5838 201.472 99.0958 201.776C99.6078 202.072 100.172 202.22 100.788 202.22ZM108.223 194.408H109.351L111.475 200.636L111.763 201.488H111.811L112.111 200.636L114.331 194.408H115.459L112.315 203H111.259L108.223 194.408ZM116.735 195.752C116.535 195.752 116.363 195.68 116.219 195.536C116.075 195.392 116.003 195.22 116.003 195.02C116.003 194.82 116.075 194.652 116.219 194.516C116.363 194.372 116.535 194.3 116.735 194.3C116.935 194.3 117.107 194.372 117.251 194.516C117.395 194.652 117.467 194.82 117.467 195.02C117.467 195.22 117.395 195.392 117.251 195.536C117.115 195.68 116.943 195.752 116.735 195.752ZM116.231 196.88H117.239V203H116.231V196.88ZM120.978 203.192C120.322 203.192 119.774 203.04 119.334 202.736C118.894 202.424 118.582 202.028 118.398 201.548L119.31 201.14C119.462 201.508 119.686 201.792 119.982 201.992C120.286 202.192 120.618 202.292 120.978 202.292C121.362 202.292 121.69 202.216 121.962 202.064C122.234 201.904 122.37 201.68 122.37 201.392C122.37 201.136 122.262 200.932 122.046 200.78C121.83 200.62 121.49 200.484 121.026 200.372L120.282 200.18C119.794 200.06 119.394 199.856 119.082 199.568C118.77 199.28 118.614 198.908 118.614 198.452C118.614 198.1 118.718 197.792 118.926 197.528C119.142 197.256 119.426 197.048 119.778 196.904C120.13 196.76 120.51 196.688 120.918 196.688C121.454 196.688 121.93 196.804 122.346 197.036C122.77 197.268 123.07 197.592 123.246 198.008L122.358 198.416C122.086 197.872 121.602 197.6 120.906 197.6C120.57 197.6 120.274 197.68 120.018 197.84C119.77 197.992 119.646 198.188 119.646 198.428C119.646 198.652 119.734 198.836 119.91 198.98C120.086 199.116 120.35 199.228 120.702 199.316L121.59 199.544C122.19 199.696 122.642 199.924 122.946 200.228C123.25 200.524 123.402 200.888 123.402 201.32C123.402 201.696 123.294 202.028 123.078 202.316C122.862 202.596 122.57 202.812 122.202 202.964C121.834 203.116 121.426 203.192 120.978 203.192ZM125.055 195.752C124.855 195.752 124.683 195.68 124.539 195.536C124.395 195.392 124.323 195.22 124.323 195.02C124.323 194.82 124.395 194.652 124.539 194.516C124.683 194.372 124.855 194.3 125.055 194.3C125.255 194.3 125.427 194.372 125.571 194.516C125.715 194.652 125.787 194.82 125.787 195.02C125.787 195.22 125.715 195.392 125.571 195.536C125.435 195.68 125.263 195.752 125.055 195.752ZM124.551 196.88H125.559V203H124.551V196.88ZM129.924 203.192C129.324 203.192 128.784 203.048 128.304 202.76C127.824 202.472 127.448 202.08 127.176 201.584C126.912 201.088 126.78 200.54 126.78 199.94C126.78 199.34 126.912 198.792 127.176 198.296C127.448 197.8 127.824 197.408 128.304 197.12C128.784 196.832 129.324 196.688 129.924 196.688C130.524 196.688 131.064 196.832 131.544 197.12C132.024 197.408 132.396 197.8 132.66 198.296C132.932 198.792 133.068 199.34 133.068 199.94C133.068 200.54 132.932 201.088 132.66 201.584C132.396 202.08 132.024 202.472 131.544 202.76C131.064 203.048 130.524 203.192 129.924 203.192ZM129.924 202.268C130.3 202.268 130.648 202.176 130.968 201.992C131.296 201.8 131.556 201.528 131.748 201.176C131.948 200.824 132.048 200.412 132.048 199.94C132.048 199.468 131.948 199.056 131.748 198.704C131.556 198.352 131.296 198.084 130.968 197.9C130.648 197.708 130.3 197.612 129.924 197.612C129.548 197.612 129.196 197.708 128.868 197.9C128.54 198.084 128.276 198.352 128.076 198.704C127.884 199.056 127.788 199.468 127.788 199.94C127.788 200.412 127.884 200.824 128.076 201.176C128.276 201.528 128.54 201.8 128.868 201.992C129.196 202.176 129.548 202.268 129.924 202.268ZM134.135 196.88H135.107V197.78H135.155C135.323 197.476 135.591 197.22 135.959 197.012C136.327 196.796 136.719 196.688 137.135 196.688C137.871 196.688 138.431 196.904 138.815 197.336C139.207 197.76 139.403 198.34 139.403 199.076V203H138.383V199.232C138.383 198.664 138.247 198.252 137.975 197.996C137.703 197.74 137.331 197.612 136.859 197.612C136.531 197.612 136.235 197.704 135.971 197.888C135.715 198.072 135.515 198.316 135.371 198.62C135.227 198.916 135.155 199.228 135.155 199.556V203H134.135V196.88ZM144.124 197.804H142.996V196.88H144.124V196.22C144.124 195.836 144.212 195.5 144.388 195.212C144.564 194.924 144.8 194.704 145.096 194.552C145.392 194.392 145.72 194.312 146.08 194.312C146.424 194.312 146.724 194.36 146.98 194.456V195.452C146.836 195.396 146.7 195.352 146.572 195.32C146.444 195.28 146.292 195.26 146.116 195.26C145.852 195.26 145.624 195.356 145.432 195.548C145.24 195.732 145.144 195.992 145.144 196.328V196.88H146.716V197.804H145.144V203H144.124V197.804ZM150.408 203.192C149.808 203.192 149.268 203.048 148.788 202.76C148.308 202.472 147.932 202.08 147.66 201.584C147.396 201.088 147.264 200.54 147.264 199.94C147.264 199.34 147.396 198.792 147.66 198.296C147.932 197.8 148.308 197.408 148.788 197.12C149.268 196.832 149.808 196.688 150.408 196.688C151.008 196.688 151.548 196.832 152.028 197.12C152.508 197.408 152.88 197.8 153.144 198.296C153.416 198.792 153.552 199.34 153.552 199.94C153.552 200.54 153.416 201.088 153.144 201.584C152.88 202.08 152.508 202.472 152.028 202.76C151.548 203.048 151.008 203.192 150.408 203.192ZM150.408 202.268C150.784 202.268 151.132 202.176 151.452 201.992C151.78 201.8 152.04 201.528 152.232 201.176C152.432 200.824 152.532 200.412 152.532 199.94C152.532 199.468 152.432 199.056 152.232 198.704C152.04 198.352 151.78 198.084 151.452 197.9C151.132 197.708 150.784 197.612 150.408 197.612C150.032 197.612 149.68 197.708 149.352 197.9C149.024 198.084 148.76 198.352 148.56 198.704C148.368 199.056 148.272 199.468 148.272 199.94C148.272 200.412 148.368 200.824 148.56 201.176C148.76 201.528 149.024 201.8 149.352 201.992C149.68 202.176 150.032 202.268 150.408 202.268ZM154.619 196.88H155.591V197.864H155.639C155.759 197.528 155.991 197.252 156.335 197.036C156.679 196.812 157.039 196.7 157.415 196.7C157.695 196.7 157.935 196.74 158.135 196.82V197.924C157.879 197.796 157.591 197.732 157.271 197.732C156.975 197.732 156.703 197.816 156.455 197.984C156.207 198.152 156.007 198.38 155.855 198.668C155.711 198.948 155.639 199.252 155.639 199.58V203H154.619V196.88ZM163.756 199.028L160.852 194.408H162.04L164.236 198.008H164.284L166.444 194.408H167.632L164.776 199.028V203H163.756V199.028ZM170.189 203.192C169.589 203.192 169.049 203.048 168.569 202.76C168.089 202.472 167.713 202.08 167.441 201.584C167.177 201.088 167.045 200.54 167.045 199.94C167.045 199.34 167.177 198.792 167.441 198.296C167.713 197.8 168.089 197.408 168.569 197.12C169.049 196.832 169.589 196.688 170.189 196.688C170.789 196.688 171.329 196.832 171.809 197.12C172.289 197.408 172.661 197.8 172.925 198.296C173.197 198.792 173.333 199.34 173.333 199.94C173.333 200.54 173.197 201.088 172.925 201.584C172.661 202.08 172.289 202.472 171.809 202.76C171.329 203.048 170.789 203.192 170.189 203.192ZM170.189 202.268C170.565 202.268 170.913 202.176 171.233 201.992C171.561 201.8 171.821 201.528 172.013 201.176C172.213 200.824 172.313 200.412 172.313 199.94C172.313 199.468 172.213 199.056 172.013 198.704C171.821 198.352 171.561 198.084 171.233 197.9C170.913 197.708 170.565 197.612 170.189 197.612C169.813 197.612 169.461 197.708 169.133 197.9C168.805 198.084 168.541 198.352 168.341 198.704C168.149 199.056 168.053 199.468 168.053 199.94C168.053 200.412 168.149 200.824 168.341 201.176C168.541 201.528 168.805 201.8 169.133 201.992C169.461 202.176 169.813 202.268 170.189 202.268ZM176.679 203.192C175.943 203.192 175.379 202.976 174.987 202.544C174.603 202.112 174.411 201.508 174.411 200.732V196.88H175.431V200.576C175.431 201.16 175.563 201.588 175.827 201.86C176.091 202.132 176.447 202.268 176.895 202.268C177.239 202.268 177.543 202.176 177.807 201.992C178.079 201.808 178.287 201.568 178.431 201.272C178.583 200.976 178.659 200.664 178.659 200.336V196.88H179.679V203H178.707V202.112H178.659C178.491 202.416 178.223 202.672 177.855 202.88C177.487 203.088 177.095 203.192 176.679 203.192ZM183.154 195.38H180.742V194.408H186.574V195.38H184.174V203H183.154V195.38ZM189.16 203.192C188.424 203.192 187.86 202.976 187.468 202.544C187.084 202.112 186.892 201.508 186.892 200.732V196.88H187.912V200.576C187.912 201.16 188.044 201.588 188.308 201.86C188.572 202.132 188.928 202.268 189.376 202.268C189.72 202.268 190.024 202.176 190.288 201.992C190.56 201.808 190.768 201.568 190.912 201.272C191.064 200.976 191.14 200.664 191.14 200.336V196.88H192.16V203H191.188V202.112H191.14C190.972 202.416 190.704 202.672 190.336 202.88C189.968 203.088 189.576 203.192 189.16 203.192ZM196.774 203.192C196.31 203.192 195.89 203.088 195.514 202.88C195.146 202.664 194.87 202.404 194.686 202.1H194.638V203H193.666V194.408H194.686V196.94L194.638 197.792H194.686C194.87 197.48 195.146 197.22 195.514 197.012C195.89 196.796 196.31 196.688 196.774 196.688C197.318 196.688 197.814 196.828 198.262 197.108C198.71 197.388 199.062 197.776 199.318 198.272C199.574 198.768 199.702 199.324 199.702 199.94C199.702 200.564 199.574 201.124 199.318 201.62C199.062 202.108 198.71 202.492 198.262 202.772C197.814 203.052 197.318 203.192 196.774 203.192ZM196.654 202.268C197.006 202.268 197.338 202.172 197.65 201.98C197.962 201.788 198.21 201.516 198.394 201.164C198.586 200.804 198.682 200.396 198.682 199.94C198.682 199.484 198.586 199.08 198.394 198.728C198.21 198.368 197.962 198.092 197.65 197.9C197.338 197.708 197.006 197.612 196.654 197.612C196.302 197.612 195.97 197.708 195.658 197.9C195.346 198.092 195.098 198.364 194.914 198.716C194.73 199.068 194.638 199.476 194.638 199.94C194.638 200.404 194.73 200.812 194.914 201.164C195.098 201.516 195.346 201.788 195.658 201.98C195.97 202.172 196.302 202.268 196.654 202.268ZM203.609 203.192C203.025 203.192 202.501 203.052 202.037 202.772C201.573 202.492 201.209 202.108 200.945 201.62C200.689 201.124 200.561 200.568 200.561 199.952C200.561 199.36 200.681 198.816 200.921 198.32C201.169 197.824 201.517 197.428 201.965 197.132C202.413 196.836 202.933 196.688 203.525 196.688C204.125 196.688 204.645 196.824 205.085 197.096C205.525 197.36 205.861 197.728 206.093 198.2C206.333 198.672 206.453 199.212 206.453 199.82C206.453 199.94 206.441 200.044 206.417 200.132H201.581C201.605 200.596 201.717 200.988 201.917 201.308C202.117 201.628 202.369 201.868 202.673 202.028C202.985 202.188 203.309 202.268 203.645 202.268C204.429 202.268 205.033 201.9 205.457 201.164L206.321 201.584C206.057 202.08 205.697 202.472 205.241 202.76C204.793 203.048 204.249 203.192 203.609 203.192ZM205.373 199.292C205.357 199.036 205.285 198.78 205.157 198.524C205.029 198.268 204.825 198.052 204.545 197.876C204.273 197.7 203.929 197.612 203.513 197.612C203.033 197.612 202.625 197.768 202.289 198.08C201.961 198.384 201.745 198.788 201.641 199.292H205.373Z" fill="black"/>
<path d="M51 207C55.4183 207 59 203.418 59 199C59 194.582 55.4183 191 51 191C46.5817 191 43 194.582 43 199C43 203.418 46.5817 207 51 207Z" fill="#139DFF"/>
<path d="M46.6128 194.376L57.4128 198.954L46.6128 203.533V194.376Z" fill="#121521"/>
<path d="M47.6128 197.507H48.384V200.336H47.6128V197.507Z" fill="white"/>
<path d="M52.0128 200.338L51.4632 199.789C51.5832 199.56 51.6328 199.266 51.6328 198.909C51.6328 197.924 51.1 197.452 50.1928 197.452C49.2496 197.452 48.7528 197.924 48.7528 198.909C48.7528 199.922 49.2072 200.365 50.1928 200.365C50.4791 200.376 50.7643 200.323 51.0272 200.21L51.5936 200.776L52.0128 200.338ZM49.5096 198.909C49.5096 198.46 49.7728 198.206 50.1928 198.206C50.6128 198.206 50.8792 198.46 50.8752 198.909C50.8704 199.389 50.6056 199.606 50.1928 199.611C49.78 199.617 49.5096 199.357 49.5096 198.909Z" fill="white"/>
<path d="M288.333 193.667V197C288.333 197.747 288.58 198.44 289 199H285C285.433 198.427 285.667 197.733 285.667 197V193.667H288.333ZM290.333 192.333H283.667C283.3 192.333 283 192.633 283 193C283 193.367 283.3 193.667 283.667 193.667H284.333V197C284.333 198.107 283.44 199 282.333 199V200.333H286.313V205L286.98 205.667L287.647 205V200.333H291.667V199C290.56 199 289.667 198.107 289.667 197V193.667H290.333C290.7 193.667 291 193.367 291 193C291 192.633 290.7 192.333 290.333 192.333Z" fill="#606367"/>
<path d="M323 196.333C323.733 196.333 324.333 195.733 324.333 195C324.333 194.267 323.733 193.667 323 193.667C322.267 193.667 321.667 194.267 321.667 195C321.667 195.733 322.267 196.333 323 196.333ZM323 197.667C322.267 197.667 321.667 198.267 321.667 199C321.667 199.733 322.267 200.333 323 200.333C323.733 200.333 324.333 199.733 324.333 199C324.333 198.267 323.733 197.667 323 197.667ZM323 201.667C322.267 201.667 321.667 202.267 321.667 203C321.667 203.733 322.267 204.333 323 204.333C323.733 204.333 324.333 203.733 324.333 203C324.333 202.267 323.733 201.667 323 201.667Z" fill="#606367"/>
<rect x="272.5" y="183.5" width="29" height="29" rx="14.5" stroke="#FF0000"/>
<path fill-rule="evenodd" clip-rule="evenodd" d="M238.16 180.343C235.121 176.022 233.215 171.154 233.467 166.044C233.475 165.867 233.338 165.717 233.161 165.708C232.985 165.7 232.835 165.836 232.826 166.013C232.568 171.264 234.513 176.271 237.635 180.712C242.289 187.329 249.559 192.689 255.971 195.725C258.697 197.016 261.116 197.412 263.737 197.841C264.6 197.982 265.484 198.126 266.409 198.308C263.578 198.488 258.881 199.265 256.475 201.32C256.34 201.435 256.325 201.637 256.44 201.772C256.555 201.907 256.757 201.923 256.892 201.808C259.227 199.814 263.816 199.107 266.528 198.943C267.336 198.895 267.977 198.895 268.34 198.928C268.417 198.934 268.506 198.95 268.537 198.956C268.541 198.957 268.544 198.957 268.546 198.958C268.82 199.094 268.974 198.859 268.985 198.839C269.008 198.799 269.105 198.611 268.924 198.441C268.892 198.411 268.637 198.237 268.539 198.172C267.547 197.511 266.534 196.889 265.509 196.281C263.336 194.993 261.724 193.428 260.292 191.324C260.192 191.177 259.992 191.139 259.846 191.239C259.7 191.338 259.662 191.538 259.762 191.684C261.249 193.87 262.925 195.495 265.183 196.833C265.66 197.116 266.135 197.402 266.606 197.694C265.67 197.51 264.775 197.365 263.902 197.223C261.319 196.805 258.932 196.418 256.245 195.145C249.922 192.151 242.749 186.869 238.16 180.343ZM268.82 198.378C268.817 198.377 268.814 198.375 268.811 198.374C268.813 198.375 268.816 198.376 268.819 198.377C268.825 198.38 268.83 198.383 268.834 198.385C268.83 198.383 268.825 198.381 268.82 198.378Z" fill="#FF0000"/>
<path d="M233.467 166.044L233.966 166.069L233.966 166.069L233.467 166.044ZM238.16 180.343L237.751 180.631L237.751 180.631L238.16 180.343ZM233.161 165.708L233.137 166.208L233.137 166.208L233.161 165.708ZM232.826 166.013L233.325 166.037L233.325 166.037L232.826 166.013ZM237.635 180.712L237.226 181L237.226 181L237.635 180.712ZM255.971 195.725L256.185 195.273L256.185 195.273L255.971 195.725ZM263.737 197.841L263.818 197.347L263.818 197.347L263.737 197.841ZM266.409 198.308L266.505 197.817L266.44 198.807L266.409 198.308ZM256.475 201.32L256.799 201.7L256.799 201.7L256.475 201.32ZM256.44 201.772L256.059 202.097L256.059 202.097L256.44 201.772ZM256.892 201.808L257.216 202.188L257.216 202.188L256.892 201.808ZM266.528 198.943L266.498 198.444L266.498 198.443L266.528 198.943ZM268.34 198.928L268.298 199.426L268.295 199.426L268.34 198.928ZM268.537 198.956L268.627 198.464L268.627 198.464L268.537 198.956ZM268.546 198.958L268.631 198.465L268.703 198.477L268.769 198.51L268.546 198.958ZM268.985 198.839L268.551 198.591L268.553 198.588L268.985 198.839ZM268.924 198.441L268.582 198.806L268.581 198.805L268.924 198.441ZM268.539 198.172L268.261 198.588L268.261 198.588L268.539 198.172ZM265.509 196.281L265.764 195.851L265.764 195.851L265.509 196.281ZM260.292 191.324L259.878 191.605L259.878 191.604L260.292 191.324ZM259.846 191.239L260.129 191.652L260.127 191.653L259.846 191.239ZM259.762 191.684L260.174 191.402L260.175 191.403L259.762 191.684ZM265.183 196.833L265.438 196.403L265.438 196.403L265.183 196.833ZM266.606 197.694L266.869 197.269L266.51 198.185L266.606 197.694ZM263.902 197.223L263.982 196.73L263.982 196.73L263.902 197.223ZM256.245 195.145L256.459 194.693L256.459 194.693L256.245 195.145ZM268.811 198.374L268.579 198.817L269.029 197.924L268.811 198.374ZM268.82 198.378L269.034 197.926L269.034 197.927L268.82 198.378ZM268.819 198.377L269.029 197.924L269.029 197.924L268.819 198.377ZM268.834 198.385L269.097 197.96L268.592 198.822L268.834 198.385ZM233.966 166.069C233.722 171.035 235.573 175.794 238.569 180.055L237.751 180.631C234.67 176.249 232.709 171.273 232.967 166.02L233.966 166.069ZM233.186 165.209C233.638 165.231 233.988 165.615 233.966 166.069L232.967 166.02C232.962 166.12 233.039 166.203 233.137 166.208L233.186 165.209ZM232.327 165.988C232.349 165.537 232.732 165.187 233.186 165.209L233.137 166.208C233.237 166.212 233.321 166.135 233.325 166.037L232.327 165.988ZM237.226 181C234.061 176.498 232.061 171.382 232.327 165.988L233.325 166.037C233.074 171.146 234.965 176.045 238.044 180.424L237.226 181ZM255.757 196.177C249.286 193.113 241.94 187.702 237.226 181L238.044 180.424C242.638 186.956 249.833 192.265 256.185 195.273L255.757 196.177ZM263.656 198.334C261.038 197.906 258.554 197.501 255.757 196.177L256.185 195.273C258.84 196.53 261.194 196.918 263.818 197.347L263.656 198.334ZM266.312 198.798C265.397 198.619 264.52 198.475 263.656 198.334L263.818 197.347C264.679 197.488 265.572 197.634 266.505 197.817L266.312 198.798ZM256.15 200.94C257.439 199.839 259.302 199.107 261.157 198.627C263.023 198.143 264.937 197.9 266.377 197.809L266.44 198.807C265.049 198.895 263.199 199.131 261.408 199.595C259.605 200.062 257.917 200.746 256.799 201.7L256.15 200.94ZM256.059 202.097C255.767 201.754 255.804 201.236 256.15 200.94L256.799 201.7C256.876 201.635 256.883 201.521 256.82 201.447L256.059 202.097ZM257.216 202.188C256.871 202.483 256.353 202.441 256.059 202.097L256.82 201.447C256.756 201.373 256.643 201.363 256.567 201.428L257.216 202.188ZM266.558 199.442C265.224 199.522 263.431 199.737 261.69 200.174C259.938 200.614 258.296 201.266 257.216 202.188L256.567 201.428C257.823 200.356 259.643 199.657 261.447 199.204C263.262 198.748 265.119 198.527 266.498 198.444L266.558 199.442ZM268.295 199.426C267.969 199.396 267.358 199.394 266.557 199.442L266.498 198.443C267.315 198.395 267.985 198.393 268.386 198.43L268.295 199.426ZM268.447 199.448C268.433 199.445 268.408 199.441 268.379 199.436C268.349 199.432 268.32 199.428 268.298 199.426L268.383 198.43C268.487 198.438 268.598 198.459 268.627 198.464L268.447 199.448ZM268.461 199.45C268.456 199.45 268.45 199.448 268.447 199.448L268.627 198.464C268.629 198.465 268.63 198.465 268.631 198.465C268.633 198.465 268.632 198.465 268.631 198.465L268.461 199.45ZM269.419 199.087C269.388 199.141 269.293 199.283 269.12 199.386C268.914 199.509 268.627 199.556 268.324 199.406L268.769 198.51C268.769 198.51 268.762 198.507 268.749 198.504C268.735 198.501 268.718 198.499 268.699 198.5C268.659 198.503 268.627 198.516 268.608 198.528C268.59 198.538 268.581 198.548 268.577 198.552C268.575 198.555 268.566 198.565 268.551 198.591L269.419 199.087ZM269.266 198.076C269.473 198.27 269.543 198.508 269.53 198.72C269.519 198.906 269.445 199.043 269.417 199.091L268.553 198.588C268.548 198.596 268.535 198.618 268.532 198.658C268.531 198.683 268.533 198.714 268.546 198.747C268.559 198.781 268.576 198.8 268.582 198.806L269.266 198.076ZM268.816 197.755C268.868 197.79 268.959 197.852 269.041 197.909C269.082 197.937 269.123 197.965 269.156 197.99C269.175 198.003 269.229 198.041 269.266 198.076L268.581 198.805C268.599 198.822 268.611 198.83 268.6 198.822C268.594 198.818 268.585 198.811 268.572 198.801C268.545 198.782 268.51 198.758 268.472 198.731C268.394 198.677 268.308 198.619 268.261 198.588L268.816 197.755ZM265.764 195.851C266.793 196.462 267.814 197.088 268.816 197.755L268.261 198.588C267.28 197.934 266.275 197.317 265.254 196.711L265.764 195.851ZM260.705 191.043C262.099 193.09 263.659 194.603 265.764 195.851L265.254 196.712C263.014 195.383 261.348 193.765 259.878 191.605L260.705 191.043ZM259.564 190.826C259.939 190.57 260.451 190.668 260.706 191.043L259.878 191.604C259.934 191.687 260.046 191.709 260.129 191.652L259.564 190.826ZM259.349 191.966C259.093 191.592 259.191 191.079 259.566 190.825L260.127 191.653C260.21 191.597 260.231 191.485 260.174 191.402L259.349 191.966ZM264.928 197.263C262.602 195.885 260.874 194.207 259.348 191.965L260.175 191.403C261.624 193.533 263.248 195.105 265.438 196.403L264.928 197.263ZM266.343 198.119C265.875 197.83 265.403 197.545 264.928 197.263L265.438 196.403C265.917 196.687 266.395 196.975 266.869 197.269L266.343 198.119ZM263.982 196.73C264.854 196.871 265.757 197.018 266.703 197.204L266.51 198.185C265.583 198.003 264.696 197.859 263.822 197.717L263.982 196.73ZM256.459 194.693C259.075 195.932 261.397 196.311 263.982 196.73L263.822 197.717C261.242 197.299 258.79 196.904 256.031 195.597L256.459 194.693ZM238.569 180.055C243.098 186.496 250.196 191.727 256.459 194.693L256.031 195.597C249.649 192.575 242.401 187.242 237.751 180.631L238.569 180.055ZM269.042 197.93C269.038 197.928 269.035 197.927 269.034 197.926C269.033 197.926 269.032 197.925 269.034 197.926L268.607 198.83C268.605 198.829 268.592 198.824 268.579 198.817L269.042 197.93ZM268.608 198.831C268.606 198.83 268.6 198.827 268.593 198.824L269.029 197.924L269.029 197.924L268.608 198.831ZM268.571 198.81C268.587 198.82 268.599 198.827 268.604 198.829C268.609 198.831 268.612 198.833 268.608 198.831L269.029 197.924C269.031 197.925 269.04 197.929 269.05 197.934C269.06 197.939 269.077 197.948 269.097 197.96L268.571 198.81ZM269.034 197.927C269.037 197.928 269.056 197.936 269.077 197.948L268.592 198.822C268.598 198.826 268.603 198.829 268.606 198.83C268.608 198.831 268.609 198.832 268.606 198.83L269.034 197.927Z" fill="#FF0000"/>
<rect x="27.25" y="72.25" width="320.5" height="178.5" rx="3.75" stroke="#B9BBBB" stroke-width="0.5"/>
</g>
<path fill-rule="evenodd" clip-rule="evenodd" d="M270.054 85.776C265.941 91.4496 263.32 95.8697 263.556 102.652C263.564 102.887 263.379 103.084 263.144 103.092C262.909 103.1 262.713 102.916 262.705 102.681C262.463 95.7114 265.139 91.1067 269.366 85.2767C275.665 76.5887 285.411 69.6188 293.973 65.7148C297.614 64.0546 300.83 63.5759 304.315 63.0574C305.462 62.8867 306.638 62.7117 307.867 62.4888C304.116 62.196 297.902 61.0748 294.749 58.3029C294.572 58.1478 294.556 57.8793 294.711 57.7028C294.866 57.5263 295.135 57.5085 295.311 57.6636C298.37 60.3531 304.444 61.3794 308.038 61.649C309.109 61.7282 309.959 61.7406 310.442 61.7035C310.544 61.6963 310.662 61.6765 310.703 61.6696C310.708 61.6687 310.713 61.668 310.715 61.6676C311.081 61.4923 311.28 61.8067 311.294 61.8329C311.325 61.8869 311.45 62.1378 311.206 62.3605C311.163 62.3996 310.822 62.6249 310.69 62.7102C309.362 63.5672 308.006 64.3725 306.636 65.1592C303.729 66.8261 301.56 68.8721 299.62 71.635C299.486 71.8273 299.219 71.874 299.028 71.739C298.836 71.6047 298.789 71.3385 298.924 71.147C300.939 68.276 303.193 66.1526 306.213 64.4212C306.852 64.0546 307.487 63.6844 308.118 63.3064C306.872 63.5326 305.682 63.708 304.522 63.8789C301.088 64.3849 297.915 64.8524 294.326 66.489C285.882 70.3392 276.267 77.2078 270.054 85.776ZM311.068 62.4413C311.063 62.4433 311.059 62.4454 311.055 62.4475C311.058 62.4458 311.062 62.4442 311.065 62.4427C311.073 62.4391 311.08 62.436 311.086 62.4324C311.08 62.4357 311.074 62.4385 311.068 62.4413Z" fill="#FF0000"/>
<path d="M263.556 102.652L264.055 102.635L264.055 102.635L263.556 102.652ZM270.054 85.776L269.65 85.4825L269.65 85.4825L270.054 85.776ZM263.144 103.092L263.161 103.592L263.161 103.592L263.144 103.092ZM262.705 102.681L263.205 102.664L263.205 102.664L262.705 102.681ZM269.366 85.2767L268.961 84.9832L268.961 84.9832L269.366 85.2767ZM293.973 65.7148L294.18 66.1698L294.18 66.1698L293.973 65.7148ZM304.315 63.0574L304.241 62.5628L304.241 62.5628L304.315 63.0574ZM307.867 62.4888L307.956 62.9808L307.906 61.9903L307.867 62.4888ZM294.749 58.3029L295.079 57.9274L295.079 57.9274L294.749 58.3029ZM295.311 57.6636L295.641 57.2881L295.641 57.2881L295.311 57.6636ZM308.038 61.649L308 62.1476L308.001 62.1477L308.038 61.649ZM310.442 61.7035L310.406 61.2047L310.403 61.205L310.442 61.7035ZM310.703 61.6696L310.62 61.1765L310.62 61.1765L310.703 61.6696ZM310.715 61.6676L310.793 62.1615L310.865 62.1501L310.931 62.1186L310.715 61.6676ZM311.294 61.8329L310.857 62.0746L310.859 62.0785L311.294 61.8329ZM311.206 62.3605L310.869 61.9909L310.869 61.9912L311.206 62.3605ZM310.69 62.7102L310.419 62.2901L310.419 62.2901L310.69 62.7102ZM306.636 65.1592L306.884 65.593L306.885 65.5929L306.636 65.1592ZM299.62 71.635L299.211 71.3478L299.21 71.3487L299.62 71.635ZM299.028 71.739L299.316 71.3304L299.314 71.3291L299.028 71.739ZM298.924 71.147L299.333 71.4351L299.333 71.4342L298.924 71.147ZM306.213 64.4212L306.462 64.8549L306.462 64.8548L306.213 64.4212ZM308.118 63.3064L308.375 63.7352L308.028 62.8144L308.118 63.3064ZM304.522 63.8789L304.449 63.3843L304.449 63.3843L304.522 63.8789ZM294.326 66.489L294.534 66.9439L294.534 66.9439L294.326 66.489ZM311.055 62.4475L310.83 62.001L311.266 62.9006L311.055 62.4475ZM311.068 62.4413L310.86 61.9863L310.86 61.9864L311.068 62.4413ZM311.065 62.4427L310.861 61.9863L310.861 61.9863L311.065 62.4427ZM311.086 62.4324L311.343 62.8614L310.85 61.9917L311.086 62.4324ZM264.055 102.635C263.826 96.0278 266.359 91.7244 270.459 86.0694L269.65 85.4825C265.523 91.1748 262.814 95.7117 263.056 102.669L264.055 102.635ZM263.161 103.592C263.671 103.574 264.073 103.147 264.055 102.635L263.056 102.669C263.054 102.627 263.087 102.594 263.127 102.592L263.161 103.592ZM262.205 102.699C262.223 103.208 262.65 103.609 263.161 103.592L263.127 102.592C263.169 102.591 263.203 102.624 263.205 102.664L262.205 102.699ZM268.961 84.9832C264.718 90.8345 261.958 95.555 262.205 102.699L263.205 102.664C262.969 95.8678 265.559 91.3789 269.77 85.5702L268.961 84.9832ZM293.766 65.2599C285.144 69.1913 275.322 76.2104 268.961 84.9832L269.77 85.5702C276.009 76.9669 285.679 70.0464 294.18 66.1698L293.766 65.2599ZM304.241 62.5628C300.76 63.081 297.478 63.567 293.766 65.2599L294.18 66.1698C297.75 64.5422 300.901 64.0709 304.388 63.5519L304.241 62.5628ZM307.778 61.9968C306.557 62.2181 305.389 62.392 304.241 62.5628L304.388 63.5519C305.534 63.3814 306.718 63.2053 307.956 62.9808L307.778 61.9968ZM294.419 58.6785C296.08 60.139 298.509 61.1371 300.951 61.8077C303.405 62.4812 305.929 62.839 307.828 62.9873L307.906 61.9903C306.054 61.8458 303.595 61.4965 301.216 60.8433C298.825 60.1871 296.57 59.2387 295.079 57.9274L294.419 58.6785ZM294.336 57.3728C294 57.755 294.033 58.3396 294.419 58.6785L295.079 57.9274C295.111 57.956 295.112 58.0037 295.087 58.0329L294.336 57.3728ZM295.641 57.2881C295.257 56.95 294.672 56.9896 294.336 57.3728L295.087 58.0329C295.06 58.063 295.013 58.0671 294.981 58.0392L295.641 57.2881ZM308.075 61.1504C306.3 61.0173 303.915 60.6972 301.603 60.0806C299.278 59.461 297.084 58.5566 295.641 57.2881L294.981 58.0392C296.597 59.4602 298.97 60.4137 301.345 61.0469C303.732 61.6833 306.181 62.0111 308 62.1476L308.075 61.1504ZM310.403 61.205C309.958 61.2391 309.138 61.2289 308.074 61.1504L308.001 62.1477C309.08 62.2274 309.96 62.242 310.48 62.202L310.403 61.205ZM310.62 61.1765C310.577 61.1837 310.481 61.1994 310.406 61.2048L310.477 62.2023C310.606 62.1931 310.747 62.1692 310.785 62.1628L310.62 61.1765ZM310.637 61.1737C310.632 61.1746 310.624 61.1758 310.62 61.1765L310.785 62.1628C310.788 62.1623 310.79 62.1619 310.792 62.1617C310.794 62.1613 310.794 62.1614 310.793 62.1615L310.637 61.1737ZM311.732 61.5912C311.7 61.5335 311.595 61.3696 311.399 61.249C311.171 61.1085 310.85 61.0487 310.499 61.2167L310.931 62.1186C310.942 62.1131 310.946 62.1128 310.943 62.1135C310.939 62.1142 310.932 62.1152 310.921 62.1144C310.898 62.1127 310.881 62.1047 310.874 62.1003C310.869 62.0971 310.869 62.0961 310.872 62.099C310.872 62.0998 310.872 62.0997 310.871 62.0978C310.87 62.0968 310.869 62.095 310.867 62.0921C310.866 62.0901 310.862 62.084 310.857 62.0746L311.732 61.5912ZM311.543 62.7301C311.782 62.5117 311.864 62.2456 311.853 62.0099C311.843 61.7992 311.761 61.6427 311.73 61.5873L310.859 62.0785C310.857 62.075 310.857 62.0738 310.856 62.0732C310.856 62.0732 310.854 62.0678 310.854 62.0569C310.853 62.0443 310.855 62.0259 310.862 62.0069C310.87 61.987 310.878 61.9825 310.869 61.9909L311.543 62.7301ZM310.961 63.1304C311.03 63.086 311.151 63.0066 311.26 62.9332C311.315 62.8965 311.368 62.8601 311.412 62.8296C311.441 62.8092 311.502 62.7667 311.543 62.7298L310.869 61.9912C310.885 61.976 310.895 61.9696 310.88 61.9806C310.871 61.9871 310.858 61.9968 310.839 62.0096C310.803 62.0351 310.755 62.0676 310.703 62.1029C310.598 62.1732 310.482 62.2492 310.419 62.2901L310.961 63.1304ZM306.885 65.5929C308.259 64.8039 309.623 63.9938 310.961 63.1303L310.419 62.2901C309.101 63.1406 307.753 63.9411 306.387 64.7256L306.885 65.5929ZM300.029 71.9223C301.93 69.2147 304.046 67.2206 306.884 65.593L306.387 64.7255C303.412 66.4316 301.189 68.5296 299.211 71.3478L300.029 71.9223ZM298.74 72.1476C299.158 72.4424 299.737 72.3405 300.03 71.9213L299.21 71.3487C299.234 71.3141 299.281 71.3056 299.316 71.3304L298.74 72.1476ZM298.515 70.8588C298.221 71.2769 298.323 71.8561 298.742 72.1489L299.314 71.3291C299.349 71.3532 299.357 71.4 299.333 71.4351L298.515 70.8588ZM305.964 63.9874C302.876 65.7579 300.568 67.9333 298.515 70.8598L299.333 71.4342C301.309 68.6187 303.51 66.5472 306.462 64.8549L305.964 63.9874ZM307.861 62.8775C307.234 63.2535 306.601 63.6221 305.964 63.9875L306.462 64.8548C307.103 64.4872 307.741 64.1153 308.375 63.7352L307.861 62.8775ZM304.595 64.3736C305.754 64.2028 306.952 64.0263 308.207 63.7983L308.028 62.8144C306.792 63.039 305.61 63.2132 304.449 63.3843L304.595 64.3736ZM294.534 66.9439C298.05 65.3402 301.158 64.8799 304.595 64.3736L304.449 63.3843C301.018 63.8898 297.779 64.3647 294.119 66.0341L294.534 66.9439ZM270.459 86.0695C276.61 77.5862 286.149 70.7668 294.534 66.9439L294.119 66.0341C285.615 69.9116 275.923 76.8294 269.65 85.4825L270.459 86.0695ZM311.28 62.894C311.276 62.8958 311.274 62.897 311.273 62.8973C311.273 62.8974 311.273 62.8974 311.275 62.8962L310.86 61.9864C310.857 61.9877 310.844 61.9937 310.83 62.001L311.28 62.894ZM310.861 61.9863C310.858 61.9876 310.851 61.9908 310.843 61.9944L311.266 62.9006C311.266 62.9008 311.266 62.9008 311.27 62.8991L310.861 61.9863ZM310.829 62.0035C310.844 61.9944 310.856 61.9887 310.86 61.9867C310.861 61.9861 310.862 61.9857 310.863 61.9854C310.864 61.9851 310.864 61.985 310.864 61.985C310.864 61.985 310.864 61.985 310.863 61.9853C310.863 61.9855 310.862 61.9858 310.861 61.9863L311.269 62.8991C311.27 62.8989 311.306 62.8833 311.343 62.8614L310.829 62.0035ZM311.275 62.8962C311.279 62.8944 311.3 62.8852 311.322 62.8731L310.85 61.9917C310.856 61.9886 310.86 61.9864 310.862 61.9856C310.863 61.985 310.864 61.9847 310.86 61.9863L311.275 62.8962Z" fill="#FF0000"/>
</g>
<defs>
<filter id="filter0_d_3_28" x="15" y="64" width="345" height="203" filterUnits="userSpaceOnUse" color-interpolation-filters="sRGB">
<feFlood flood-opacity="0" result="BackgroundImageFix"/>
<feColorMatrix in="SourceAlpha" type="matrix" values="0 0 0 0 0 0 0 0 0 0 0 0 0 0 0 0 0 0 127 0" result="hardAlpha"/>
<feOffset dy="4"/>
<feGaussianBlur stdDeviation="6"/>
<feComposite in2="hardAlpha" operator="out"/>
<feColorMatrix type="matrix" values="0 0 0 0 0 0 0 0 0 0 0 0 0 0 0 0 0 0 0.12 0"/>
<feBlend mode="normal" in2="BackgroundImageFix" result="effect1_dropShadow_3_28"/>
<feBlend mode="normal" in="SourceGraphic" in2="effect1_dropShadow_3_28" result="shape"/>
</filter>
<linearGradient id="paint0_linear_3_28" x1="50" y1="0" x2="50" y2="42" gradientUnits="userSpaceOnUse">
<stop stop-color="#DFE1E5"/>
<stop offset="1" stop-color="#DFE1E5"/>
</linearGradient>
<clipPath id="clip0_3_28">
<rect width="356" height="235" rx="10" fill="white"/>
</clipPath>
</defs>
</svg>
