<svg height="88" viewBox="0 0 87 88" width="87" xmlns="http://www.w3.org/2000/svg"><path d="m53.84432 18.85947c0-12.531-8.3125-18.145-8.6641-18.379l-.73047-.48047-.70312.51953c-8.7305 6.4766-8.6172 17.879-8.6055 18.359v29.695l-9.1484 12.547v15.156h9.1484v2.832c0 .69141.55859 1.25 1.25 1.25h6.8516v7.335899h2.5v-7.335899h6.8516c.69141 0 1.25-.55859 1.25-1.25v-2.832h9.1484v-15.156l-9.1484-12.543zm-2.5 20.25h-13.703v-19h13.703zm-13.703 2.5h13.703v12.75h-13.703zm6.8672-38.504c1.7969 1.4883 6.3711 6.0938 6.7969 14.504h-13.613c.21484-2.8242 1.3086-9.9102 6.8164-14.504zm-16.016 70.672v-11.844l6.6484-9.1133v20.957zm9.1484 4.082v-21h13.703v21zm22.852-15.926v11.844h-6.6484v-20.95701zm-16.0006-27.156c-2.8945 0-5.25-2.3555-5.25-5.25s2.3555-5.25 5.25-5.25 5.25 2.3555 5.25 5.25-2.3555 5.25-5.25 5.25zm-4.316 35.758v-11.008h2.5v11.008zm0 4.492v-3h2.5v3zm-1.891 12.667999v-4.293h2.5v4.293zm9.832 0v-4.293h2.5v4.293zm-7.941-35.835999v-7h2.5v7zm-32.731 21.023-.00056.00042c0-6.3091 5.1333-11.44191 11.438-11.438 1.8086 0 3.6093.43359 5.2109 1.2539l-1.1406 2.2266c-1.2656-.64844-2.6367-.97656-4.0703-.97656-4.9258 0-8.9375 4.0078-8.9375 8.9375 0 .8047.11719 1.61721.34375 2.4258l.46875 1.6641-1.8984-.08984c-.05468-.00391-.10937-.00782-.16406-.00782-3.418 0-6.1953 2.7812-6.1953 6.1953h-2.5c0-4.4102 3.3008-8.06251 7.5586-8.6211-.07422-.5234-.11328-1.05077-.11328-1.5703zm70.137-4.394.00043-.00013c4.8008.4219 8.57809 4.4648 8.582 9.375h-2.5c0-3.8085-3.0976-6.9062-6.9062-6.9062-.05078 0-.10156.00391-.15234.00782l-1.4648.07031.00391-1.4258c-.004-5.4727-4.5316-10-10.098-10v-2.5c6.5311 0 11.92172 5.0001 12.535 11.379zm-51.59-27.461v-15.5h2.5v15.5zm-7 10.832v-14.332h2.5v14.332zm40.836-10.832v-15.5h2.5v15.5zm7 10.832v-14.332h2.5v14.332z" fill="#fff" fill-rule="evenodd"/></svg>