<svg fill="none" height="9" viewBox="0 0 14 9" width="14" xmlns="http://www.w3.org/2000/svg"><path d="m10.3486 6.17637-1.52772 1.52774c-.09141.09325-.1533.21137-.17795.3396-.02464.12822-.01095.26087.03937.38136s.13504.22347.24357.29608c.10852.07261.23604.11162.36661.11216h3.98542c.1762 0 .3451-.06998.4697-.19455.1245-.12457.1945-.29352.1945-.46968v-3.98541c-.0018-.13001-.0417-.25662-.1148-.36415-.0732-.10752-.1762-.19122-.2964-.24073-.1203-.0495-.2524-.06263-.38-.03776s-.2451.08664-.338.17767l-1.5277 1.51446-2.85622-2.85621c-.12417-.12171-.2911-.18988-.46497-.18988-.17386 0-.3408.06817-.46496.18988l-2.19198 2.20526-3.52044-3.52045c-.06005-.069074-.13373-.124994-.21641-.164251-.08268-.039256-.17259-.061001-.26407-.06387s-.18257.0132-.26755.047198-.162016.085191-.226276.150373c-.064259.06517-.114355.14293-.147144.22838s-.047564.17676-.043398.26819c.004167.09144.027184.18102.067609.26314s.097385.15499.167305.21406l3.985414 3.98541c.12416.1217.2911.18987.46496.18987.17387 0 .3408-.06817.46497-.18987l2.19197-2.19198z" fill="#eb3223"/></svg>