<svg fill="none" height="9" viewBox="0 0 14 9" width="14" xmlns="http://www.w3.org/2000/svg"><path d="m10.3486 3.49025-1.52772-1.52774c-.09141-.09325-.1533-.21136-.17795-.33959-.02464-.12823-.01095-.26088.03937-.38136.05032-.12049.13504-.22348.24357-.296086.10852-.072609.23604-.111621.36661-.112161h3.98542c.1762 0 .3451.069982.4697.194547.1245.12457.1945.29352.1945.46969v3.98541c-.0018.13001-.0417.25662-.1148.36414-.0732.10753-.1762.19123-.2964.24073-.1203.04951-.2524.06264-.38.03777s-.2451-.08665-.338-.17768l-1.5277-1.51445-2.85622 2.85621c-.12417.12171-.2911.18988-.46497.18988-.17386 0-.3408-.06817-.46496-.18988l-2.19198-2.20526-3.52044 3.52044c-.06005.06908-.13373.125-.21641.16426-.08268.03925-.17259.061-.26407.06387s-.18257-.0132-.26755-.0472-.162016-.08519-.226276-.15037c-.064259-.06518-.114355-.14293-.147144-.22838-.032789-.08546-.047564-.17676-.043398-.2682.004167-.09143.027184-.18102.067609-.26313.040425-.08212.097385-.155.167305-.21406l3.985414-3.98541c.12416-.12171.2911-.18988.46496-.18988.17387 0 .3408.06817.46497.18988l2.19197 2.19198z" fill="#44d14a"/></svg>