<svg height="100" viewBox="0 0 100 100" width="100" xmlns="http://www.w3.org/2000/svg"><g fill="none" fill-rule="evenodd" opacity="0.5"><path d="m75.4610429 79.581v.004c-.924-.191-1.869.204-2.38.995l-8.167 12.713-8.848-15.631c9.962-1.293 18.744-6.337 24.876-13.678l12.025 19.113zm-40.377 13.707-8.167-12.713v.005c-.511-.791-1.456-1.186-2.38-.995l-17.50600002 3.516 12.91000002-20.52c5.797 7.624 14.336 13.041 24.149 14.797zm64.557-8.159-15.798-25.108c3.891-6.067 6.157-13.277 6.157-21.021 0-21.539-17.461-39-39-39-.577 0-1.149.019-1.721.044-.16-.03-.324-.047-.49-.043l.002.001c-8.592.294-16.44 3.585-22.533 8.853-8.705 7.153-14.258 18-14.258 30.145 0 7.063 1.887 13.681 5.17 19.395l-16.81600002 26.726v.008c-.489.768-.47 1.758.048 2.508.52.751 1.439 1.119 2.331.937l21.20000002-4.226 9.375 14.595c.43.675 1.18 1.079 1.983 1.056.804-.022 1.532-.465 1.923-1.162l11.804-20.887c.656.033 1.317.05 1.982.05h.005l11.776 20.837c.391.697 1.123 1.14 1.922 1.162.804.023 1.558-.381 1.985-1.056l9.374-14.595 21.2 4.226c.896.182 1.815-.186 2.33-.937.5190001-.75.5410001-1.74.049-2.508z" fill="#a9ceec"/><path d="m34 12.592h-2.544v-2.544c0-1.105-.895-2-2-2-1.104 0-2 .895-2 2v2.544h-2.545c-1.104 0-2 .896-2 2s.896 2 2 2h2.545v2.544c0 1.105.896 2 2 2 1.105 0 2-.895 2-2v-2.544h2.544c1.104 0 2-.896 2-2s-.896-2-2-2m-25.456-5.257c0 1.841 1.493 3.335 3.335 3.335s3.335-1.494 3.335-3.335c0-1.842-1.493-3.335-3.335-3.335s-3.335 1.493-3.335 3.335m-4 0c0-4.051 3.284-7.335 7.335-7.335s7.335 3.284 7.335 7.335-3.284 7.335-7.335 7.335-7.335-3.284-7.335-7.335m18.424 19.606v5.137c0 1.104-.896 2-2 2-1.105 0-2-.896-2-2v-5.137c0-1.989-1.411-3.533-3.058-3.533h-8.851c-1.648 0-3.059 1.544-3.059 3.533v5.137c0 1.104-.896 2-2 2s-2-.896-2-2v-5.137c0-4.122 3.118-7.533 7.059-7.533h8.851c3.94 0 7.058 3.411 7.058 7.533" fill="#fff" transform="translate(34 22)"/></g></svg>