<svg height="100" viewBox="0 0 100 100" width="100" xmlns="http://www.w3.org/2000/svg"><g fill="none" fill-rule="evenodd"><path d="m12.2340988 85.0616884c-10.00166664-10.7666667-14.22500008-25.6833334-11.34895831-40.0958334 2.87676979-14.4125 12.50416671-26.5666666 25.87500001-32.665625 13.3708333-6.09947914 28.8614583-5.40364581 41.6302083 1.8677084l.0610313.508625-6.9377084 6.9377083h.004073c-10.2905209-4.9927083-22.3427084-4.7973958-32.4666667.5289687-10.12375 5.3222917-17.1145833 15.1447917-18.8270833 26.453125-1.71708338 11.3072917 2.0426041 22.7583334 10.131875 30.846875 8.0892708 8.0885417 19.5395833 11.8489584 30.846875 10.131875 11.3114583-1.7130208 21.1302083-8.7036458 26.453125-18.8270833 5.3263541-10.12375 5.5216666-22.1760417.5289687-32.4666667l6.9377083-6.9377083.508625.0610417v.0040625c4.9154167 8.6304166 6.8807292 18.628125 5.5989584 28.475-1.2777084 9.8469791-5.7372917 19.0104166-12.6916667 26.0989687 1.1759375 3.2063438 2.9175 7.8449948 4.0608333 10.8843698.2807605.7080104.1912396 1.5055208-.2400729 2.13625-.42725.626625-1.1434375.9969062-1.9042708.9887708h-10.575c-.6510417 0-1.2777083-.2604166-1.7375-.7202187l-3.5196875-3.5196875c-12.2520833 5.5419796-26.3229167 5.4036466-38.4604167-.3743542l-3.8940625 3.8940625c-.4638646.4598021-1.0905208.7202188-1.7415625.7202188h-10.54270831c-.76090625.0081385-1.47302083-.3621459-1.90426979-.9887709-.4313125-.6306979-.52083333-1.4282281-.24007292-2.13625 1.26135313-3.3569791 3.23083232-8.6140572 4.39458232-11.8041614z" fill="#7c8898"/><path d="m46.3361822 46.5200217h.0040625c-3.125-.2197292-6.0546875 1.5177083-7.3567709 4.3660417-1.2980104 2.8483333-.6958021 6.2052083 1.5177084 8.41875 2.2176145 2.2135416 5.5705312 2.8197916 8.41875 1.5217708 2.8483333-1.3020833 4.5897916-4.2358333 4.3660416-7.3567708l29.3052084-29.3333334 5.2083333.5940729c.744625.085448 1.4892708-.1749687 2.0182292-.7080104l9.574375-9.5011458c.4150416-.4150417.5574583-1.0335313.3621458-1.586875-.1912396-.5533854-.6835938-.9480833-1.2695833-1.01725l-9.5214584-1.0416667-1.0416666-9.52145831c-.0651042-.58186458-.4598021-1.07833333-1.01725-1.26958333-.5533855-.19123959-1.171875-.05289584-1.586875.36214583l-9.5295834 9.52958333v.00407292c-.5330416.52896876-.7934583 1.27364586-.7080104 2.01822916l.5940729 5.2083333z" fill="#00c392"/><path d="m45.7665155 36.884605h.4068958l8.3333334-8.3333333c-7.7352084-2.6692708-16.2635417-1.6764583-23.1770834 2.6936458-6.9132291 4.3741667-11.4666666 11.6541667-12.3739583 19.7833334-.9033229 8.1298958 1.936875 16.23125 7.7230208 22.0177083 5.7861459 5.7861458 13.8875 8.62625 22.0177084 7.7230208 8.1339583-.9073854 15.409375-5.4565625 19.7833333-12.3739583 4.3701042-6.9132292 5.3629167-15.4416667 2.6936458-23.1770833l-8.3333333 8.3333333v.4068958c.0040729 4.5329167-1.7944792 8.8785417-5.0008333 12.0854167-3.2022917 3.2063542-7.5480209 5.0089583-12.08125 5.0089583-4.5288542 0-8.8785417-1.7985416-12.08125-5.0048958-3.2063542-3.2022917-5.0048959-7.5480208-5.0048959-12.08125 0-4.5329167 1.8026042-8.8785417 5.0089584-12.08125 3.2063541-3.2022917 7.5520833-5.0008333 12.0854166-5.0008333z" fill="#539cd9"/></g></svg>