<svg height="130" viewBox="0 0 177 130" width="177" xmlns="http://www.w3.org/2000/svg"><g fill="none" fill-rule="evenodd"><path d="m146.032018 89.9953077c3.034862 0 5.499314 2.4669811 5.499314 5.5049577s-2.464452 5.5049576-5.499314 5.5049576c-3.034863 0-5.499315-2.466981-5.499315-5.5049576s2.464452-5.5049577 5.499315-5.5049577m-104.8915531 11.0099153c-3.0348622 0-5.4993142-2.466981-5.4993142-5.5049576s2.464452-5.5049577 5.4993142-5.5049577c3.0348623 0 5.4993143 2.4669811 5.4993143 5.5049577s-2.464452 5.5049576-5.4993143 5.5049576m12.4870897-62.005523c0 9.5779263 3.4544284 18.3428589 9.1755134 25.1308067l-15.9085522 15.9268775c-1.795144-.6719949-3.7281454-1.0569919-5.7540509-1.0569919-9.0906012 0-16.4829583 7.3989431-16.4829583 16.4998731 0 2.8469781.7242512 5.5259576 1.9969354 7.8659396-.090906.079999-.1918017.141999-.2787118.227998l-26.3757302 26.405797h15.3551244l18.6986674-18.719856c.2017914-.201998.366621-.425997.5304516-.648995 2.0109209.875993 4.2256311 1.368989 6.5562215 1.368989 9.0906013 0 16.4829583-7.415942 16.4829583-16.4998726 0-3.0929762-.8701004-5.978954-2.3535666-8.454935l15.6278424-15.6458796c6.2005892 4.1669679 13.6598771 6.6009492 21.6895752 6.6009492 8.5441658 0 16.4390038-2.7609788 22.8613638-7.4289429l16.453988 16.4738733c-1.484465 2.475981-2.353567 5.3619588-2.353567 8.454935 0 9.0989296 7.392358 16.4998726 16.482959 16.4998726s16.497943-7.400943 16.482958-16.4998726c0-2.8329782-.718257-5.4999577-1.977955-7.8309398l16.462979-16.4818732v-15.3728817l-24.48968 24.5168114c-1.989943-.8549935-4.17868-1.3309898-6.478302-1.3309898-2.025906 0-3.959906.384997-5.754051 1.0569919l-17.01341-17.032869c5.183641-6.6229491 8.282437-14.9588849 8.282437-24.0248152 0-21.5388343-17.442966-38.9997-38.9597198-38.9997-21.5167539 0-38.9597196 17.4608657-38.9597196 38.9997" fill="#dfe2e6"/><path d="m22.8527244 14.5816643-3.565431-3.3052061c-.0844126-.0780049-.1648057-.144009-.2331398-.1930121-.1075256-.0780048-.2180661-.1410088-.3446851-.1950121-.5577267-.2320145-1.3395489-.1870117-1.8842117.1980123-.0813979.0570036-.1567664.1210076-.2291201.1880117l-3.5744752 3.3132067c-.3899063.3670229-.6129969.866054-.6270657 1.4070877-.0060295.2510157.0331621.4980311.1175748.7330457.0874274.2440152.219071.464029.3899062.6560409.1798794.2000125.3989504.3580224.6501787.4680292.7245422.32002 1.5937918.1840115 2.1635775-.3400212l.2462036-.2290143v5.5103437h-6.46058506c-1.58675748 0-3.07201876-.6940433-4.07492184-1.9041188-.77378294-.9350583-1.20087092-2.1231324-1.20087092-3.3462086 0-1.4820925.62907548-2.8991808 1.72543546-3.8912427.85417597-.7730482 1.91335417-1.2360771 3.07201876-1.3410836.47733363-.0460029.92853952-.255016 1.2712148-.5890368.3436802-.3340208.5637562-.7790486.6210362-1.2560783.0452211-.3830239.1215945-.76604779.2291201-1.13707092.1075257-.37402333.2472086-.74304634.416034-1.0950683.3487048-.7280454.8200089-1.38908662 1.3998437-1.96612261 1.3365341-1.33108301 3.126284-2.06312866 5.0386333-2.06312866 1.9053149 0 3.6910451.73204565 5.0275793 2.06312866 1.3676864 1.36008482 2.1123269 3.16719752 2.0962483 5.08531713-.0030148.2620163-.0190934.5250327-.0502457.7810487-.0743635.5960372.1105405 1.1980747.5115007 1.652103.2853953.3220201.669272.5370335 1.142586.6420401.0834078.0250015.2401742.0710044.4391469.0710044h.439147c.8471416 0 1.6571014.2420151 2.342452.7000437.2230906.1510094.4301027.3200199.6150067.5040314.7808173.7760484 1.2099151 1.8211136 1.2099151 2.9431835 0 .8430526-.2441938 1.650103-.7054489 2.3321455-.2984591.4420276-.6753014.8170509-1.1174631 1.1140695-.6873604.4590286-1.4973202.7010437-2.3444618.7010437h-7.6865789v-5.5103437l.2482135.2310144c.7697633.7090443 2.0138455.6690418 2.7725547-.0890055.2039974-.2030127.3537294-.4460278.4461814-.7160447.0824028-.2430151.1165699-.5000311.1004913-.7680479-.0331622-.5180323-.2622823-1.011063-.6330952-1.3590847m10.9284279-1.5640976c-.5155203-.5540345-1.1064091-1.0380647-1.7545779-1.4360895-.6562082-.4030251-1.3646718-.7160447-2.1093122-.9280579-.2180661-.0610038-.4401519-.1150072-.6642475-.1590099-.0532603-.80605027-.1889236-1.59909973-.4049799-2.36414744-.0994863-.35402208-.2170612-.70104372-.3507146-1.04606524-.5597365-1.43108924-1.3938142-2.70316857-2.4791201-3.78223587-1.8560742-1.84811525-4.3181108-3.00218722-6.9328942-3.25120275-2.1887003-.20801297-4.4266413.22701416-6.3671281 1.23707715-.6662573.3480217-1.3013623.76404764-1.8882314 1.23907727-.2974542.24101503-.5838544.49903112-.86020544.77404827-.40598482.40302513-.78182225.84205251-1.11846807 1.30108114-.64716391.88705532-1.16067441 1.87111669-1.52646271 2.92418236-.10551585.30101877-.19796784.61003804-.27836087.92305756-2.95142921.78904921-5.39135775 2.97418545-6.45857526 5.82836345-.19294328.5150321-.33966056 1.0480654-.4361322 1.5830988-.05024565.273017-.08843234.5510343-.11355516.8320518-.02512282.2810176-.03818669.5630352-.03818669.8500531 0 .6390398.06531934 1.2780797.19394819 1.9021186.1869138.9080566.50848593 1.7831112.95567218 2.6021623 1.67217507 3.0551905 4.87181777 4.9523088 8.35283608 4.9523088h6.45958015v7.0084371c0 .2630164.0512506.5210325.1527468.7680479.3095132.7440464 1.0250112 1.2240763 1.8259267 1.2240763.7999107 0 1.5164136-.4800299 1.8249219-1.2230763.1014962-.2440152.1527467-.5030313.1527467-.7690479v-7.0084371h7.6865789c3.968401 0 7.4273113-2.806175 8.2232023-6.6724161.1135552-.5510344.1718401-1.1160696.1718401-1.6811049 0-2.0911304-.7888566-4.090255-2.2188477-5.628351" fill="#fff" transform="translate(75 20)"/></g></svg>