<svg height="24" viewBox="0 0 24 24" width="24" xmlns="http://www.w3.org/2000/svg"><path d="m60.7173116 38.0000957c-1.812316 0-3.2856344 1.4508548-3.2856344 3.2345806 0 1.0457425.5147824 1.968126 1.3000225 2.5601592l-2.5763688 6.1149751c-.1445845-.0199429-.2879246-.0436255-.4374996-.0436255-.9161295 0-1.7437443.3714487-2.3407872.969736l-3.2234126-1.812316c.0710478-.2667372.1221496-.5409475.1221496-.8288912 0-1.7836301-1.4732866-3.2345806-3.2856345-3.2345806-1.812316 0-3.2869108 1.4508548-3.2869108 3.2345806 0 1.108092.5696334 2.086539 1.4358896 2.6698612l-1.5854774 4.4024375c-.0897431-.0074794-.174502-.0261747-.2667372-.0261747-1.812316 0-3.2869108 1.4508547-3.2869108 3.2333042 0 1.7849065 1.474531 3.235857 3.2869108 3.235857 1.8110716 0 3.2856344-1.4508548 3.2856344-3.235857 0-1.1068475-.5696333-2.0852945-1.4358895-2.6686167l1.5854773-4.4024375c.0897431.0062318.1757465.0261747.2667373.0261747.9161294 0 1.7437443-.3726931 2.3407872-.969736l3.2234125 1.8135605c-.0722922.2654896-.1233971.5409474-.1233971.8288911 0 1.7836302 1.4745309 3.2345806 3.2869108 3.2345806 1.812316 0 3.2856344-1.4508547 3.2856344-3.2345806 0-1.0457424-.5147824-1.9681259-1.2987781-2.5589147l2.5763688-6.1149751c.1445846.0186953.2879246.0436255.4374996.0436255 1.8123161 0 3.2869108-1.4508548 3.2869108-3.2345806 0-1.7861509-1.4745309-3.2371333-3.2869108-3.2371333zm-17.4301041 22.0606885c-.8887199 0-1.6116424-.7117226-1.6116424-1.5867218 0-.8725104.7229225-1.5842011 1.6116424-1.5842011.8874436 0 1.6103981.7117227 1.6103981 1.5842011.0012444.8749992-.7216781 1.5867218-1.6103981 1.5867218zm3.7029997-10.2806503c-.8874435 0-1.610398-.7117226-1.610398-1.5854774s.7229225-1.5854774 1.610398-1.5854774 1.6103981.7117226 1.6103981 1.5854774-.7216781 1.5854774-1.6103981 1.5854774zm8.727656 4.905956c-.8874436 0-1.6116425-.7117226-1.6116425-1.5854773 0-.8737548.7229226-1.5854774 1.6116425-1.5854774.8874436 0 1.610398.7117226 1.610398 1.5854774-.0012476.8737547-.7229225 1.5854773-1.610398 1.5854773zm4.9994484-11.8661915c-.8874435 0-1.610398-.7117226-1.610398-1.5854773 0-.8737548.7229225-1.5854774 1.610398-1.5854774s1.6103981.7117226 1.6103981 1.5854774c0 .8737547-.7216781 1.5854773-1.6103981 1.5854773z" fill="#7c8898" fill-rule="evenodd" transform="translate(-40 -38)"/></svg>