<svg height="130" viewBox="0 0 177 130" width="177" xmlns="http://www.w3.org/2000/svg"><g fill="none" fill-rule="evenodd"><path d="m146.032018 89.9953077c3.034862 0 5.499314 2.4669811 5.499314 5.5049577s-2.464452 5.5049576-5.499314 5.5049576c-3.034863 0-5.499315-2.466981-5.499315-5.5049576s2.464452-5.5049577 5.499315-5.5049577m-104.8915531 11.0099153c-3.0348622 0-5.4993142-2.466981-5.4993142-5.5049576s2.464452-5.5049577 5.4993142-5.5049577c3.0348623 0 5.4993143 2.4669811 5.4993143 5.5049577s-2.464452 5.5049576-5.4993143 5.5049576m12.4870897-62.005523c0 9.5779263 3.4544284 18.3428589 9.1755134 25.1308067l-15.9085522 15.9268775c-1.795144-.6719949-3.7281454-1.0569919-5.7540509-1.0569919-9.0906012 0-16.4829583 7.3989431-16.4829583 16.4998731 0 2.8469781.7242512 5.5259576 1.9969354 7.8659396-.090906.079999-.1918017.141999-.2787118.227998l-26.3757302 26.405797h15.3551244l18.6986674-18.719856c.2017914-.201998.366621-.425997.5304516-.648995 2.0109209.875993 4.2256311 1.368989 6.5562215 1.368989 9.0906013 0 16.4829583-7.415942 16.4829583-16.4998726 0-3.0929762-.8701004-5.978954-2.3535666-8.454935l15.6278424-15.6458796c6.2005892 4.1669679 13.6598771 6.6009492 21.6895752 6.6009492 8.5441658 0 16.4390038-2.7609788 22.8613638-7.4289429l16.453988 16.4738733c-1.484465 2.475981-2.353567 5.3619588-2.353567 8.454935 0 9.0989296 7.392358 16.4998726 16.482959 16.4998726s16.497943-7.400943 16.482958-16.4998726c0-2.8329782-.718257-5.4999577-1.977955-7.8309398l16.462979-16.4818732v-15.3728817l-24.48968 24.5168114c-1.989943-.8549935-4.17868-1.3309898-6.478302-1.3309898-2.025906 0-3.959906.384997-5.754051 1.0569919l-17.01341-17.032869c5.183641-6.6229491 8.282437-14.9588849 8.282437-24.0248152 0-21.5388343-17.442966-38.9997-38.9597198-38.9997-21.5167539 0-38.9597196 17.4608657-38.9597196 38.9997" fill="#dfe2e6"/><path d="m20.257012 22.3141111c-.4391111.8721235-1.5066667 1.2252099-2.3857778.7900309l-4.4444445-2.2067901c-.6017777-.2992408-.9822222-.910963-.9822222-1.5800618v-6.6203703c0-.9745186.7955556-1.7654321 1.7777778-1.7654321.9813333 0 1.7777778.7909135 1.7777778 1.7654321v5.530216l3.4613333 1.7177654c.8791111.4369445 1.2346667 1.4970865.7955556 2.3692099m-4.2568889 7.1544136c-6.87288891 0-12.44444447-5.5328642-12.44444447-12.3580247 0-6.8242778 5.57155556-12.35802469 12.44444447-12.35802469 6.8728889 0 12.4444444 5.53374689 12.4444444 12.35802469 0 6.8251605-5.5715555 12.3580247-12.4444444 12.3580247m0-28.24691359c-8.83644447 0-16.00000002 7.11469136-16.00000002 15.88888889 0 8.7750802 7.16355555 15.8888889 16.00000002 15.8888889 8.8364444 0 16-7.1138087 16-15.8888889 0-8.77419753-7.1635556-15.88888889-16-15.88888889" fill="#fff" transform="translate(77 22)"/></g></svg>