<svg height="130" viewBox="0 0 177 130" width="177" xmlns="http://www.w3.org/2000/svg"><g fill="none" fill-rule="evenodd"><path d="m146.032018 89.9953077c3.034862 0 5.499314 2.4669811 5.499314 5.5049577s-2.464452 5.5049576-5.499314 5.5049576c-3.034863 0-5.499315-2.466981-5.499315-5.5049576s2.464452-5.5049577 5.499315-5.5049577m-104.8915531 11.0099153c-3.0348622 0-5.4993142-2.466981-5.4993142-5.5049576s2.464452-5.5049577 5.4993142-5.5049577c3.0348623 0 5.4993143 2.4669811 5.4993143 5.5049577s-2.464452 5.5049576-5.4993143 5.5049576m12.4870897-62.005523c0 9.5779263 3.4544284 18.3428589 9.1755134 25.1308067l-15.9085522 15.9268775c-1.795144-.6719949-3.7281454-1.0569919-5.7540509-1.0569919-9.0906012 0-16.4829583 7.3989431-16.4829583 16.4998731 0 2.8469781.7242512 5.5259576 1.9969354 7.8659396-.090906.079999-.1918017.141999-.2787118.227998l-26.3757302 26.405797h15.3551244l18.6986674-18.719856c.2017914-.201998.366621-.425997.5304516-.648995 2.0109209.875993 4.2256311 1.368989 6.5562215 1.368989 9.0906013 0 16.4829583-7.415942 16.4829583-16.4998726 0-3.0929762-.8701004-5.978954-2.3535666-8.454935l15.6278424-15.6458796c6.2005892 4.1669679 13.6598771 6.6009492 21.6895752 6.6009492 8.5441658 0 16.4390038-2.7609788 22.8613638-7.4289429l16.453988 16.4738733c-1.484465 2.475981-2.353567 5.3619588-2.353567 8.454935 0 9.0989296 7.392358 16.4998726 16.482959 16.4998726s16.497943-7.400943 16.482958-16.4998726c0-2.8329782-.718257-5.4999577-1.977955-7.8309398l16.462979-16.4818732v-15.3728817l-24.48968 24.5168114c-1.989943-.8549935-4.17868-1.3309898-6.478302-1.3309898-2.025906 0-3.959906.384997-5.754051 1.0569919l-17.01341-17.032869c5.183641-6.6229491 8.282437-14.9588849 8.282437-24.0248152 0-21.5388343-17.442966-38.9997-38.9597198-38.9997-21.5167539 0-38.9597196 17.4608657-38.9597196 38.9997" fill="#dfe2e6"/><path d="m19.9158857 15.835c0 .625-.4626286 1.13-1.0331428 1.13h-11.53005719c-.57051428 0-1.03314285-.505-1.03314285-1.13s.46262857-1.13 1.03314285-1.13h11.53005719c.5705142 0 1.0331428.505 1.0331428 1.13zm5.7654857-6.118c0 .624-.4626285 1.13-1.0340571 1.13h-17.29462859c-.57051428 0-1.03314285-.506-1.03314285-1.13s.46262857-1.131 1.03314285-1.131h17.29462859c.5714286 0 1.0340571.507 1.0340571 1.131zm2.2756572 10.983c0 .349-.2596572.633-.5796572.633h-9.1017143c-.5001142 0-.9828571.201-1.3549714.569l-3.7421714 3.687v-2.045c0-.586-.2139429-1.148-.5924572-1.563-.3794285-.415-.8941714-.648-1.4290285-.648h-6.53531431c-.31908572 0-.57874286-.284-.57874286-.633l.00091428-15.645c0-.349.25874286-.633.57782858-.633h22.75565711c.32 0 .5796572.284.5796572.633zm2.6889143-19.219c-.8667429-.948-2.0425143-1.481-3.2685715-1.481h-22.75565711c-2.55268572 0-4.62171429 2.263-4.62171429 5.055v15.645c0 1.341.48731429 2.626 1.35405714 3.574.86674286.949 2.04251429 1.481 3.26765715 1.481h1.37142857 3.1424v3.997c0 .973.51108571 1.846 1.30011424 2.28l.2038858.097c.8182857.345 1.7453714.178 2.4036571-.462l6.0068571-5.912h8.3273143c1.2260572 0 2.4018286-.532 3.2685715-1.481.8676571-.948 1.3540571-2.233 1.3540571-3.574v-15.645c0-1.34-.4864-2.626-1.3540571-3.574z" fill="#fff" transform="translate(77 25)"/></g></svg>