<svg height="130" viewBox="0 0 177 130" width="177" xmlns="http://www.w3.org/2000/svg"><g fill="none" fill-rule="evenodd"><path d="m146.032018 89.9953077c3.034862 0 5.499314 2.4669811 5.499314 5.5049577s-2.464452 5.5049576-5.499314 5.5049576c-3.034863 0-5.499315-2.466981-5.499315-5.5049576s2.464452-5.5049577 5.499315-5.5049577m-104.8915531 11.0099153c-3.0348622 0-5.4993142-2.466981-5.4993142-5.5049576s2.464452-5.5049577 5.4993142-5.5049577c3.0348623 0 5.4993143 2.4669811 5.4993143 5.5049577s-2.464452 5.5049576-5.4993143 5.5049576m12.4870897-62.005523c0 9.5779263 3.4544284 18.3428589 9.1755134 25.1308067l-15.9085522 15.9268775c-1.795144-.6719949-3.7281454-1.0569919-5.7540509-1.0569919-9.0906012 0-16.4829583 7.3989431-16.4829583 16.4998731 0 2.8469781.7242512 5.5259576 1.9969354 7.8659396-.090906.079999-.1918017.141999-.2787118.227998l-26.3757302 26.405797h15.3551244l18.6986674-18.719856c.2017914-.201998.366621-.425997.5304516-.648995 2.0109209.875993 4.2256311 1.368989 6.5562215 1.368989 9.0906013 0 16.4829583-7.415942 16.4829583-16.4998726 0-3.0929762-.8701004-5.978954-2.3535666-8.454935l15.6278424-15.6458796c6.2005892 4.1669679 13.6598771 6.6009492 21.6895752 6.6009492 8.5441658 0 16.4390038-2.7609788 22.8613638-7.4289429l16.453988 16.4738733c-1.484465 2.475981-2.353567 5.3619588-2.353567 8.454935 0 9.0989296 7.392358 16.4998726 16.482959 16.4998726s16.497943-7.400943 16.482958-16.4998726c0-2.8329782-.718257-5.4999577-1.977955-7.8309398l16.462979-16.4818732v-15.3728817l-24.48968 24.5168114c-1.989943-.8549935-4.17868-1.3309898-6.478302-1.3309898-2.025906 0-3.959906.384997-5.754051 1.0569919l-17.01341-17.032869c5.183641-6.6229491 8.282437-14.9588849 8.282437-24.0248152 0-21.5388343-17.442966-38.9997-38.9597198-38.9997-21.5167539 0-38.9597196 17.4608657-38.9597196 38.9997" fill="#dfe2e6"/><path d="m22.7999083 13c0 2.6108333-2.1480149 4.7272727-4.8000333 4.7272727-2.6510184 0-4.8000333-2.1164394-4.8000333-4.7272727s2.1490149-4.72727273 4.8000333-4.72727273c2.6520184 0 4.8000333 2.11643943 4.8000333 4.72727273m-4.8000333 9.0606061c-7.2140501 0-12.10908409-6.604394-13.68109501-9.0635606 1.56401086-2.4621213 6.43404471-9.05765156 13.68109501-9.05765156 7.2130501 0 12.1080841 6.60143936 13.680095 9.06060606-1.5740109 2.4621212-6.4690449 9.0606061-13.680095 9.0606061m17.7751234-9.9686364c-.2600018-.4934091-6.5080452-12.0919697-17.7751234-12.0919697-11.26607824 0-17.51412163 11.5985606-17.77412343 12.0919697-.30100209.5692424-.30100209 1.2468182 0 1.8160606.2600018.4934091 6.50804519 12.0919697 17.77412343 12.0919697 11.2670782 0 17.5151216-11.5985606 17.7751234-12.0919697.3000021-.5692424.3000021-1.2468182 0-1.8160606" fill="#fff" transform="translate(75 25)"/></g></svg>