<svg height="130" viewBox="0 0 177 130" width="177" xmlns="http://www.w3.org/2000/svg"><g fill="none" fill-rule="evenodd"><path d="m146.032018 89.9953077c3.034862 0 5.499314 2.4669811 5.499314 5.5049577s-2.464452 5.5049576-5.499314 5.5049576c-3.034863 0-5.499315-2.466981-5.499315-5.5049576s2.464452-5.5049577 5.499315-5.5049577m-104.8915531 11.0099153c-3.0348622 0-5.4993142-2.466981-5.4993142-5.5049576s2.464452-5.5049577 5.4993142-5.5049577c3.0348623 0 5.4993143 2.4669811 5.4993143 5.5049577s-2.464452 5.5049576-5.4993143 5.5049576m12.4870897-62.005523c0 9.5779263 3.4544284 18.3428589 9.1755134 25.1308067l-15.9085522 15.9268775c-1.795144-.6719949-3.7281454-1.0569919-5.7540509-1.0569919-9.0906012 0-16.4829583 7.3989431-16.4829583 16.4998731 0 2.8469781.7242512 5.5259576 1.9969354 7.8659396-.090906.079999-.1918017.141999-.2787118.227998l-26.3757302 26.405797h15.3551244l18.6986674-18.719856c.2017914-.201998.366621-.425997.5304516-.648995 2.0109209.875993 4.2256311 1.368989 6.5562215 1.368989 9.0906013 0 16.4829583-7.415942 16.4829583-16.4998726 0-3.0929762-.8701004-5.978954-2.3535666-8.454935l15.6278424-15.6458796c6.2005892 4.1669679 13.6598771 6.6009492 21.6895752 6.6009492 8.5441658 0 16.4390038-2.7609788 22.8613638-7.4289429l16.453988 16.4738733c-1.484465 2.475981-2.353567 5.3619588-2.353567 8.454935 0 9.0989296 7.392358 16.4998726 16.482959 16.4998726s16.497943-7.400943 16.482958-16.4998726c0-2.8329782-.718257-5.4999577-1.977955-7.8309398l16.462979-16.4818732v-15.3728817l-24.48968 24.5168114c-1.989943-.8549935-4.17868-1.3309898-6.478302-1.3309898-2.025906 0-3.959906.384997-5.754051 1.0569919l-17.01341-17.032869c5.183641-6.6229491 8.282437-14.9588849 8.282437-24.0248152 0-21.5388343-17.442966-38.9997-38.9597198-38.9997-21.5167539 0-38.9597196 17.4608657-38.9597196 38.9997" fill="#dfe2e6"/><path d="m34 12.592h-2.544v-2.544c0-1.105-.895-2-2-2-1.104 0-2 .895-2 2v2.544h-2.545c-1.104 0-2 .896-2 2s.896 2 2 2h2.545v2.544c0 1.105.896 2 2 2 1.105 0 2-.895 2-2v-2.544h2.544c1.104 0 2-.896 2-2s-.896-2-2-2m-25.456-5.257c0 1.841 1.493 3.335 3.335 3.335s3.335-1.494 3.335-3.335c0-1.842-1.493-3.335-3.335-3.335s-3.335 1.493-3.335 3.335m-4 0c0-4.051 3.284-7.335 7.335-7.335s7.335 3.284 7.335 7.335-3.284 7.335-7.335 7.335-7.335-3.284-7.335-7.335m18.424 19.606v5.137c0 1.104-.896 2-2 2-1.105 0-2-.896-2-2v-5.137c0-1.989-1.411-3.533-3.058-3.533h-8.851c-1.648 0-3.059 1.544-3.059 3.533v5.137c0 1.104-.896 2-2 2s-2-.896-2-2v-5.137c0-4.122 3.118-7.533 7.059-7.533h8.851c3.94 0 7.058 3.411 7.058 7.533" fill="#fff" transform="translate(75 20)"/></g></svg>