<svg height="40" viewBox="0 0 30 40" width="30" xmlns="http://www.w3.org/2000/svg"><g fill="#926fd2" fill-rule="evenodd"><path d="m14.9309793 0c8.2803361 0 15.0675743 6.6518241 15.0675743 14.9309793 0 6.7872382-7.1946614 17.646347-12.7596299 23.4833242-1.2209313 1.2209311-3.2583231 1.2209311-4.4792938 0-5.56496845-5.8369772-12.7596299-16.4240769-12.7596299-23.4833242 0-8.28033613 6.6518241-14.9309793 14.9309793-14.9309793zm-.155918 2c7.3811465 0 13.0607629 5.67978106 13.0607629 12.7750613 0 7.3811465-5.679781 13.0607629-13.0607629 13.0607629-7.09816196 0-12.7750613-5.679781-12.7750613-13.0607629 0-7.09816196 5.67978106-12.7750613 12.7750613-12.7750613z"/><path d="m15.2856089 8.65403795v6.73035805c0 .1730386-.1457188.3139435-.3139435.3139435-.1735734 0-.3144784-.1414261-.3144784-.3139435v-6.73090664l-1.2353938 1.21985512c-.1232185.12107485-.3257245.1178615-.4451933 0-.1226822-.1216111-.1194675-.32198031 0-.43929596l1.5498996-1.53001334.0407163-.04071624c.2233989-.22018971.5850148-.22018971.8084137 0l.0412511.04071624 1.5493511 1.53001334c.1232185.12107485.1194675.32144543 0 .43929596-.1226822.12107485-.3257244.1178615-.4446584.00214361zm2.857397 3.47279365c-.1580346 0-.2855403-.1328613-.2855403-.2860752 0-.1574998.132325-.2855403.2855403-.2855403h1.7174935c.6294779 0 1.1395006.5105576 1.1395006 1.1384308v6.2947788c0 .628943-.5110925 1.1384309-1.1395006 1.1384309h-9.7209988c-.62947787 0-1.1395006-.5105576-1.1395006-1.1384309v-6.2947788c0-.628943.51109248-1.1384308 1.1395006-1.1384308h1.7174935c.1580346 0 .2855403.132325.2855403.2855403 0 .1580346-.132325.2860752-.2855403.2860752h-1.7106361c-.31822251 0-.57537337.2555462-.57537337.5705594v6.2873729c0 .3150132.25768574.5705595.57537337.5705595h9.7070097c.3182225 0 .5753734-.2555463.5753734-.5705595v-6.2873729c0-.3150132-.2576858-.5705594-.5753734-.5705594z" stroke="#926fd2"/></g></svg>