<svg height="100" viewBox="0 0 100 100" width="100" xmlns="http://www.w3.org/2000/svg"><g fill="none" fill-rule="evenodd" opacity=".5"><path d="m48.7912576.00176101c-19.4824593.66582398-35.1559245 16.72571119-35.1559245 36.36271199 0 6.9866406 1.970859 13.5246562 5.3975901 19.0688334l-18.67907065 29.6867453v.0088748c-.48827168.7679123-.47051077 1.7577962.04882716 2.5078908.51933908.7501627 1.43814526 1.1185852 2.33039531.9365898l21.19946218-4.2258016 9.3747617 14.5950858c.4305686.6746987 1.1807655 1.0786317 1.9841541 1.056439.8034228-.0221949 1.5314384-.4660791 1.9219966-1.162925l12.7837659-22.6198818 12.783766 22.6198818c.390615.6968914 1.1230169 1.1407665 1.9219966 1.162925.8034227.0221937 1.5580285-.3817403 1.9841541-1.056439l9.3747617-14.5950858 21.199461 4.2258016c.8966363.1819954 1.8155221-.1864271 2.3303953-.9365898.5193388-.7501627.5415318-1.7399558.0488284-2.5078908l-18.6790707-29.6867453c3.4267311-5.5440636 5.3975901-12.0871927 5.3975901-19.0688334 0-17.115474-11.9360602-31.34693044-27.8754277-35.19115089v-.00887478c-1.2250825-.29295846-2.4591421.46163599-2.7520892 1.6867753-.2929584 1.2295142.461636 2.45914203 1.6867753 2.75652084 13.9689631 3.3735506 24.3959708 15.74391793 24.3959708 30.75149103 0 17.5995526-14.2178204 31.8173729-31.817373 31.8173729s-31.817373-14.2178203-31.817373-31.8173729c0-17.2268348 13.6757887-31.23556963 30.751491-31.81737303.6036778-.02219261 1.1763337-.27520891 1.5890505-.71908399.4128077-.43944337.6347452-1.0253603.6169957-1.6290495-.0177609-.59923476-.2752089-1.17178839-.719084-1.5846188-.4394434-.41280769-1.0253603-.63474523-1.6290495-.61699568zm-26.881703 59.44485249c6.04121 7.3373135 14.8882579 12.2690063 24.892549 13.1383023l-11.7178839 20.7028828-8.1674061-12.7133131v.004443c-.5104643-.7901049-1.455872-1.1851971-2.3792577-.9942929l-17.5063731 3.5155925 14.8791672-23.6493988zm56.1781173 0 14.8791672 23.6493988-17.5063731-3.5155925v.0044431c-.923272-.1908701-1.8687025.204188-2.3792577.9942929l-8.167406 12.7133132-11.717884-20.7028828c10.0050866-.8700006 18.8517935-5.8015571 24.892549-13.1383024z" fill="#a9ceec"/><circle cx="51" cy="39" fill="#a9ceec" r="39"/><g fill="#fff" stroke="#fff" stroke-width="2" transform="translate(34 21)"><path d="m16.9115809 0c-2.6309559 0-5.2775735 1.00385291-7.28382355 3.01008816-1.49213235 1.49212138-2.396875 3.34328424-2.78033088 5.27349064-3.89338235.75539885-6.84742647 4.1562194-6.84742647 8.260601 0 4.6573187 3.79852941 8.4558202 8.45588235 8.4558202h18.01470585c4.0540442 0 7.3529412-3.2987625 7.3529412-7.3528871 0-3.8257072-2.9483456-6.9422284-6.6867647-7.28377.0172353-2.66112012-.9277206-5.32790198-2.9526471-7.35288709-2.0048161-2.00480144-4.6415441-3.01008817-7.2724264-3.01008817zm0 2.20586613c2.0723162 0 4.1261029.77120757 5.7099265 2.35520327 1.8310661 1.83105272 2.6065441 4.3183506 2.320772 6.6981125-.0387757.3130712.0574449.6290027.2656838.8659863.2096728.2369578.5098162.3733796.8257721.3748134h.4365809c2.8708088 0 5.1470588 2.2762333 5.1470588 5.147021s-2.27625 5.147021-5.1470588 5.147021h-18.01470591c-3.46536764 0-6.25-2.7846119-6.25-6.2499541 0-3.2714465 2.48878677-5.9381916 5.6757353-6.2271601.51555147-.0502643.92628676-.45238635.98805147-.9650664.20249265-1.7477445.97654412-3.44666583 2.32077204-4.7907736 1.5826103-1.58259865 3.6491912-2.35520327 5.7213235-2.35520327z"/><path d="m16.1970226 11.0082618-3.5512226 3.3057505c-.4098434.3899793-.4022889 1.022733-.0605322 1.4049439.3417568.3822109.9962471.4106403 1.3720633.0619828l1.9269579-1.7975018v19.0248377c0 .5474983.4338303.9917251.9685153.9917251s.9685152-.4442268.9685152-.9917251v-19.0248377l1.926958 1.7975018c.3758162.3486575 1.0101291.3008762 1.3720632-.0619828.3821116-.3822109.3114874-1.0524187-.0605322-1.4049439l-3.5512226-3.3057505c-.1916853-.1794924-.3329109-.2582618-.6557493-.2582618-.322903 0-.4931357.1058865-.655814.2582618z"/></g></g></svg>