<svg width="131" height="44" viewBox="0 0 131 44" fill="none" xmlns="http://www.w3.org/2000/svg">
<path d="M0.0621033 14.0738H9.23348L13.7705 28.859H13.8645L18.4015 14.0939H27.5796L19.3881 37.9194H7.81062L0.0621033 14.0738Z" fill="white"/>
<path d="M28.8811 14.0471L39.3613 14.0034V37.8994H28.8811V14.0471Z" fill="white"/>
<path d="M74.732 0.462738H85.2122V37.899H74.732V0.462738Z" fill="#139DFF"/>
<path d="M28.8811 0.462738L40.9251 5.56676L28.8811 10.6708V0.462738Z" fill="white"/>
<path d="M130.938 38.198L123.676 30.9295C125.26 27.9094 125.914 24.0034 125.914 19.2752C125.904 6.24832 118.857 0 106.853 0C94.3598 0 87.8328 6.24832 87.8328 19.2752C87.8328 32.698 93.843 38.5503 106.853 38.5503C111.494 38.5503 115.115 37.8557 117.897 36.5L125.394 44L130.938 38.198ZM97.8196 19.2752C97.8196 13.3423 101.303 9.97316 106.853 9.97316C112.404 9.97316 115.944 13.3289 115.887 19.2752C115.837 25.6779 112.323 28.5235 106.853 28.5805C101.266 28.6544 97.8196 25.2081 97.8196 19.2752Z" fill="#139DFF"/>
<path d="M61.6409 0.462738V15.9997H61.4899C59.812 13.9862 57.0905 13.2245 53.6374 13.2245C45.8284 13.2245 41.3988 18.0164 41.3988 26.0131C41.3988 34.1842 45.2345 38.701 53.8152 38.701C57.0938 38.701 60.6241 37.6943 62 35.5768H62.104V37.899H70.8023V0.462738H61.6409ZM55.7012 30.7513C53.1273 30.7916 51.54 29.0164 51.54 25.9627C51.54 22.909 53.1441 21.1775 55.7012 21.1775C58.2583 21.1775 59.8892 22.9124 59.8624 25.9627C59.8355 29.258 58.2214 30.7144 55.7012 30.7513Z" fill="white"/>
</svg>
