<svg width="131" height="44" viewBox="0 0 131 44" fill="none" xmlns="http://www.w3.org/2000/svg">
<path d="M0.503296 14.0738H9.61283L14.1193 28.859H14.2126L18.719 14.0939H27.8352L19.699 37.9194H8.19957L0.503296 14.0738Z" fill="#121521"/>
<path d="M29.1283 14.0471L39.5378 14.0034V37.8994H29.1283V14.0471Z" fill="#121521"/>
<path d="M74.6698 0.462738H85.0793V37.899H74.6698V0.462738Z" fill="#139DFF"/>
<path d="M29.1283 0.462738L41.091 5.56676L29.1283 10.6708V0.462738Z" fill="#121521"/>
<path d="M130.497 38.198L123.284 30.9295C124.857 27.9094 125.507 24.0034 125.507 19.2752C125.497 6.24832 118.497 0 106.575 0C94.1653 0 87.6823 6.24832 87.6823 19.2752C87.6823 32.698 93.652 38.5503 106.575 38.5503C111.184 38.5503 114.781 37.8557 117.544 36.5L124.99 44L130.497 38.198ZM97.6018 19.2752C97.6018 13.3423 101.062 9.97316 106.575 9.97316C112.088 9.97316 115.604 13.3289 115.548 19.2752C115.498 25.6779 112.008 28.5235 106.575 28.5805C101.025 28.6544 97.6018 25.2081 97.6018 19.2752Z" fill="#139DFF"/>
<path d="M61.6669 0.462738V15.9997H61.5169C59.8503 13.9862 57.1471 13.2245 53.7173 13.2245C45.961 13.2245 41.5612 18.0164 41.5612 26.0131C41.5612 34.1842 45.371 38.701 53.8939 38.701C57.1504 38.701 60.6569 37.6943 62.0235 35.5768H62.1268V37.899H70.7664V0.462738H61.6669ZM55.7672 30.7513C53.2106 30.7916 51.634 29.0164 51.634 25.9627C51.634 22.909 53.2273 21.1775 55.7672 21.1775C58.307 21.1775 59.9269 22.9124 59.9003 25.9627C59.8736 29.258 58.2704 30.7144 55.7672 30.7513Z" fill="#121521"/>
</svg>
