<svg height="100" viewBox="0 0 100 100" width="100" xmlns="http://www.w3.org/2000/svg"><g fill="none" fill-rule="evenodd" opacity=".5"><path d="m48.7912576.00176101c-19.4824593.66582398-35.1559245 16.72571119-35.1559245 36.36271199 0 6.9866406 1.970859 13.5246562 5.3975901 19.0688334l-18.67907065 29.6867453v.0088748c-.48827168.7679123-.47051077 1.7577962.04882716 2.5078908.51933908.7501627 1.43814526 1.1185852 2.33039531.9365898l21.19946218-4.2258016 9.3747617 14.5950858c.4305686.6746987 1.1807655 1.0786317 1.9841541 1.056439.8034228-.0221949 1.5314384-.4660791 1.9219966-1.162925l12.7837659-22.6198818 12.783766 22.6198818c.390615.6968914 1.1230169 1.1407665 1.9219966 1.162925.8034227.0221937 1.5580285-.3817403 1.9841541-1.056439l9.3747617-14.5950858 21.199461 4.2258016c.8966363.1819954 1.8155221-.1864271 2.3303953-.9365898.5193388-.7501627.5415318-1.7399558.0488284-2.5078908l-18.6790707-29.6867453c3.4267311-5.5440636 5.3975901-12.0871927 5.3975901-19.0688334 0-17.115474-11.9360602-31.34693044-27.8754277-35.19115089v-.00887478c-1.2250825-.29295846-2.4591421.46163599-2.7520892 1.6867753-.2929584 1.2295142.461636 2.45914203 1.6867753 2.75652084 13.9689631 3.3735506 24.3959708 15.74391793 24.3959708 30.75149103 0 17.5995526-14.2178204 31.8173729-31.817373 31.8173729s-31.817373-14.2178203-31.817373-31.8173729c0-17.2268348 13.6757887-31.23556963 30.751491-31.81737303.6036778-.02219261 1.1763337-.27520891 1.5890505-.71908399.4128077-.43944337.6347452-1.0253603.6169957-1.6290495-.0177609-.59923476-.2752089-1.17178839-.719084-1.5846188-.4394434-.41280769-1.0253603-.63474523-1.6290495-.61699568zm-26.881703 59.44485249c6.04121 7.3373135 14.8882579 12.2690063 24.892549 13.1383023l-11.7178839 20.7028828-8.1674061-12.7133131v.004443c-.5104643-.7901049-1.455872-1.1851971-2.3792577-.9942929l-17.5063731 3.5155925 14.8791672-23.6493988zm56.1781173 0 14.8791672 23.6493988-17.5063731-3.5155925v.0044431c-.923272-.1908701-1.8687025.204188-2.3792577.9942929l-8.167406 12.7133132-11.717884-20.7028828c10.0050866-.8700006 18.8517935-5.8015571 24.892549-13.1383024z" fill="#a9ceec"/><circle cx="51" cy="39" fill="#a9ceec" r="39"/><g transform="translate(35 28)"><path d="m0 11.1999998s5.81818172-11.1999998 15.9999997-11.1999998c10.181818 0 15.9999998 11.1999998 15.9999998 11.1999998s-5.8181818 11.1999998-15.9999998 11.1999998c-10.18181798 0-15.9999997-11.1999998-15.9999997-11.1999998z" stroke="#fff" stroke-linecap="round" stroke-linejoin="round" stroke-width="4"/><circle cx="16" cy="11.2" fill="#fff" r="4.8"/></g></g></svg>