<svg width="16" height="16" viewBox="0 0 16 16" fill="none" xmlns="http://www.w3.org/2000/svg">
<path fill-rule="evenodd" clip-rule="evenodd" d="M8 16C12.4183 16 16 12.4183 16 8C16 3.58172 12.4183 0 8 0C3.58172 0 0 3.58172 0 8C0 12.4183 3.58172 16 8 16ZM4.35356 4.64645C4.1583 4.84172 4.1583 5.1583 4.35356 5.35356L6.98935 7.98935L4.2929 10.6858C4.09764 10.8811 4.09764 11.1976 4.2929 11.3929L4.64645 11.7465C4.84172 11.9417 5.1583 11.9417 5.35356 11.7465L8.05001 9.05001L10.7175 11.7175C10.9128 11.9128 11.2294 11.9128 11.4246 11.7175L11.7782 11.364C11.9734 11.1687 11.9734 10.8521 11.7782 10.6569L9.11067 7.98935L11.7175 5.38249C11.9128 5.18723 11.9128 4.87065 11.7175 4.67538L11.364 4.32183C11.1687 4.12657 10.8521 4.12657 10.6569 4.32183L8.05001 6.92869L5.41422 4.2929C5.21896 4.09764 4.90238 4.09764 4.70711 4.2929L4.35356 4.64645Z" fill="black"/>
</svg>
